<svg width="16" height="12" viewBox="0 0 16 12" fill="none" xmlns="http://www.w3.org/2000/svg">
<path d="M1.12401 11.25C0.711062 10.3038 0.498598 9.28236 0.500007 8.25C0.500007 4.10775 3.85776 0.75 8.00001 0.75C12.1423 0.75 15.5 4.10775 15.5 8.25C15.5014 9.28236 15.289 10.3038 14.876 11.25H1.12401ZM13.811 9.75C14.0386 8.8637 14.0606 7.93708 13.875 7.04102C13.6895 6.14496 13.3015 5.3032 12.7407 4.58013C12.1799 3.85707 11.4611 3.27186 10.6394 2.86927C9.81764 2.46668 8.9147 2.25738 7.99963 2.25738C7.08457 2.25738 6.18163 2.46668 5.35988 2.86927C4.53814 3.27186 3.81937 3.85707 3.25855 4.58013C2.69773 5.3032 2.30973 6.14496 2.12422 7.04102C1.93871 7.93708 1.96062 8.8637 2.18826 9.75H13.811ZM8.00001 4.5C7.8011 4.5 7.61033 4.42098 7.46968 4.28033C7.32902 4.13968 7.25001 3.94891 7.25001 3.75C7.25001 3.55109 7.32902 3.36032 7.46968 3.21967C7.61033 3.07902 7.8011 3 8.00001 3C8.19892 3 8.38968 3.07902 8.53034 3.21967C8.67099 3.36032 8.75001 3.55109 8.75001 3.75C8.75001 3.94891 8.67099 4.13968 8.53034 4.28033C8.38968 4.42098 8.19892 4.5 8.00001 4.5ZM4.25001 7.5C4.05109 7.5 3.86033 7.42098 3.71968 7.28033C3.57902 7.13968 3.50001 6.94891 3.50001 6.75C3.50001 6.55109 3.57902 6.36032 3.71968 6.21967C3.86033 6.07902 4.05109 6 4.25001 6C4.44892 6 4.63968 6.07902 4.78034 6.21967C4.92099 6.36032 5.00001 6.55109 5.00001 6.75C5.00001 6.94891 4.92099 7.13968 4.78034 7.28033C4.63968 7.42098 4.44892 7.5 4.25001 7.5ZM11.75 7.5C11.5511 7.5 11.3603 7.42098 11.2197 7.28033C11.079 7.13968 11 6.94891 11 6.75C11 6.55109 11.079 6.36032 11.2197 6.21967C11.3603 6.07902 11.5511 6 11.75 6C11.9489 6 12.1397 6.07902 12.2803 6.21967C12.421 6.36032 12.5 6.55109 12.5 6.75C12.5 6.94891 12.421 7.13968 12.2803 7.28033C12.1397 7.42098 11.9489 7.5 11.75 7.5ZM8.00001 5.25C8.19892 5.25 8.38968 5.32902 8.53034 5.46967C8.67099 5.61032 8.75001 5.80109 8.75001 6V8.25C8.75001 8.44891 8.67099 8.63968 8.53034 8.78033C8.38968 8.92098 8.19892 9 8.00001 9C7.8011 9 7.61033 8.92098 7.46968 8.78033C7.32902 8.63968 7.25001 8.44891 7.25001 8.25V6C7.25001 5.80109 7.32902 5.61032 7.46968 5.46967C7.61033 5.32902 7.8011 5.25 8.00001 5.25Z" fill="#8C8E9D"/>
</svg>
