<svg width="12" height="11" viewBox="0 0 12 11" fill="none" xmlns="http://www.w3.org/2000/svg">
<path d="M0.166626 1.41667C0.166626 1.10725 0.289542 0.810501 0.508335 0.591709C0.727127 0.372916 1.02387 0.25 1.33329 0.25H10.6666C10.976 0.25 11.2728 0.372916 11.4916 0.591709C11.7104 0.810501 11.8333 1.10725 11.8333 1.41667V9.58333C11.8333 9.89275 11.7104 10.1895 11.4916 10.4083C11.2728 10.6271 10.976 10.75 10.6666 10.75H1.33329C1.02387 10.75 0.727127 10.6271 0.508335 10.4083C0.289542 10.1895 0.166626 9.89275 0.166626 9.58333V1.41667ZM3.66663 1.41667H1.33329V9.58333H3.66663V1.41667ZM4.83329 1.41667V9.58333H7.16663V1.41667H4.83329ZM8.33329 1.41667V9.58333H10.6666V1.41667H8.33329Z" fill="#8C8E9D"/>
</svg>
