<svg width="24" height="24" viewBox="0 0 24 24" fill="current" xmlns="http://www.w3.org/2000/svg">
<path d="M11.1834 15.2666C11.3973 15.4805 11.6695 15.5875 12 15.5875C12.3306 15.5875 12.6028 15.4805 12.8167 15.2666L16.4334 11.65C16.6473 11.4361 16.7542 11.1685 16.7542 10.8473C16.7542 10.5269 16.6375 10.25 16.4042 10.0166C16.1903 9.80276 15.9181 9.69581 15.5875 9.69581C15.257 9.69581 14.9848 9.80276 14.7709 10.0166L12 12.7875L9.20004 9.98748C8.98615 9.77359 8.71899 9.66665 8.39854 9.66665C8.07732 9.66665 7.80004 9.78331 7.56671 10.0166C7.35282 10.2305 7.24587 10.5028 7.24587 10.8333C7.24587 11.1639 7.35282 11.4361 7.56671 11.65L11.1834 15.2666ZM12 23.6666C10.3862 23.6666 8.86949 23.3602 7.45004 22.7473C6.0306 22.1352 4.79587 21.3041 3.74587 20.2541C2.69587 19.2041 1.86482 17.9694 1.25271 16.55C0.639819 15.1305 0.333374 13.6139 0.333374 12C0.333374 10.3861 0.639819 8.86942 1.25271 7.44998C1.86482 6.03054 2.69587 4.79581 3.74587 3.74581C4.79587 2.69581 6.0306 1.86437 7.45004 1.25148C8.86949 0.639369 10.3862 0.333313 12 0.333313C13.6139 0.333313 15.1306 0.639369 16.55 1.25148C17.9695 1.86437 19.2042 2.69581 20.2542 3.74581C21.3042 4.79581 22.1353 6.03054 22.7474 7.44998C23.3603 8.86942 23.6667 10.3861 23.6667 12C23.6667 13.6139 23.3603 15.1305 22.7474 16.55C22.1353 17.9694 21.3042 19.2041 20.2542 20.2541C19.2042 21.3041 17.9695 22.1352 16.55 22.7473C15.1306 23.3602 13.6139 23.6666 12 23.6666Z" fill="#2E86FA"/>
</svg>
