<svg width="12" height="14" viewBox="0 0 12 14" fill="none" xmlns="http://www.w3.org/2000/svg">
<path d="M3.75 1.75001C3.55109 1.75001 3.36032 1.82902 3.21967 1.96968C3.07902 2.11033 3 2.30109 3 2.50001C3 2.69892 3.07902 2.88968 3.21967 3.03034C3.36032 3.17099 3.55109 3.25001 3.75 3.25001C3.94891 3.25001 4.13968 3.17099 4.28033 3.03034C4.42098 2.88968 4.5 2.69892 4.5 2.50001C4.5 2.30109 4.42098 2.11033 4.28033 1.96968C4.13968 1.82902 3.94891 1.75001 3.75 1.75001ZM1.6275 1.75001C1.78245 1.31086 2.0698 0.930582 2.44995 0.661599C2.8301 0.392616 3.28432 0.248169 3.75 0.248169C4.21568 0.248169 4.6699 0.392616 5.05005 0.661599C5.4302 0.930582 5.71755 1.31086 5.8725 1.75001H11.25C11.4489 1.75001 11.6397 1.82902 11.7803 1.96968C11.921 2.11033 12 2.30109 12 2.50001C12 2.69892 11.921 2.88968 11.7803 3.03034C11.6397 3.17099 11.4489 3.25001 11.25 3.25001H5.8725C5.71755 3.68916 5.4302 4.06943 5.05005 4.33842C4.6699 4.6074 4.21568 4.75184 3.75 4.75184C3.28432 4.75184 2.8301 4.6074 2.44995 4.33842C2.0698 4.06943 1.78245 3.68916 1.6275 3.25001H0.75C0.551088 3.25001 0.360322 3.17099 0.21967 3.03034C0.0790178 2.88968 0 2.69892 0 2.50001C0 2.30109 0.0790178 2.11033 0.21967 1.96968C0.360322 1.82902 0.551088 1.75001 0.75 1.75001H1.6275ZM8.25 6.25001C8.05109 6.25001 7.86032 6.32902 7.71967 6.46968C7.57902 6.61033 7.5 6.8011 7.5 7.00001C7.5 7.19892 7.57902 7.38968 7.71967 7.53034C7.86032 7.67099 8.05109 7.75001 8.25 7.75001C8.44891 7.75001 8.63968 7.67099 8.78033 7.53034C8.92098 7.38968 9 7.19892 9 7.00001C9 6.8011 8.92098 6.61033 8.78033 6.46968C8.63968 6.32902 8.44891 6.25001 8.25 6.25001ZM6.1275 6.25001C6.28245 5.81086 6.5698 5.43058 6.94995 5.1616C7.3301 4.89262 7.78432 4.74817 8.25 4.74817C8.71568 4.74817 9.1699 4.89262 9.55005 5.1616C9.9302 5.43058 10.2175 5.81086 10.3725 6.25001H11.25C11.4489 6.25001 11.6397 6.32902 11.7803 6.46968C11.921 6.61033 12 6.8011 12 7.00001C12 7.19892 11.921 7.38968 11.7803 7.53034C11.6397 7.67099 11.4489 7.75001 11.25 7.75001H10.3725C10.2175 8.18916 9.9302 8.56943 9.55005 8.83842C9.1699 9.1074 8.71568 9.25185 8.25 9.25185C7.78432 9.25185 7.3301 9.1074 6.94995 8.83842C6.5698 8.56943 6.28245 8.18916 6.1275 7.75001H0.75C0.551088 7.75001 0.360322 7.67099 0.21967 7.53034C0.0790178 7.38968 0 7.19892 0 7.00001C0 6.8011 0.0790178 6.61033 0.21967 6.46968C0.360322 6.32902 0.551088 6.25001 0.75 6.25001H6.1275ZM3.75 10.75C3.55109 10.75 3.36032 10.829 3.21967 10.9697C3.07902 11.1103 3 11.3011 3 11.5C3 11.6989 3.07902 11.8897 3.21967 12.0303C3.36032 12.171 3.55109 12.25 3.75 12.25C3.94891 12.25 4.13968 12.171 4.28033 12.0303C4.42098 11.8897 4.5 11.6989 4.5 11.5C4.5 11.3011 4.42098 11.1103 4.28033 10.9697C4.13968 10.829 3.94891 10.75 3.75 10.75ZM1.6275 10.75C1.78245 10.3109 2.0698 9.93058 2.44995 9.6616C2.8301 9.39262 3.28432 9.24817 3.75 9.24817C4.21568 9.24817 4.6699 9.39262 5.05005 9.6616C5.4302 9.93058 5.71755 10.3109 5.8725 10.75H11.25C11.4489 10.75 11.6397 10.829 11.7803 10.9697C11.921 11.1103 12 11.3011 12 11.5C12 11.6989 11.921 11.8897 11.7803 12.0303C11.6397 12.171 11.4489 12.25 11.25 12.25H5.8725C5.71755 12.6892 5.4302 13.0694 5.05005 13.3384C4.6699 13.6074 4.21568 13.7518 3.75 13.7518C3.28432 13.7518 2.8301 13.6074 2.44995 13.3384C2.0698 13.0694 1.78245 12.6892 1.6275 12.25H0.75C0.551088 12.25 0.360322 12.171 0.21967 12.0303C0.0790178 11.8897 0 11.6989 0 11.5C0 11.3011 0.0790178 11.1103 0.21967 10.9697C0.360322 10.829 0.551088 10.75 0.75 10.75H1.6275Z" fill="#8C8E9D"/>
</svg>
