<svg width="85" height="30" viewBox="0 0 85 30" fill="none" xmlns="http://www.w3.org/2000/svg">
<g clip-path="url(#clip0_311_259)">
<rect width="22.1138" height="22.1138" rx="5.18291" transform="matrix(0.707107 -0.707106 0.707107 0.707106 0 15.5039)" fill="#2E86FA"/>
<path d="M21.1472 10.3827C22.214 10.3827 23.0337 10.6949 23.6062 11.3195C24.1787 11.931 24.4649 12.7767 24.4649 13.8566C24.4649 14.2469 24.4259 14.6568 24.3478 15.0861L23.5268 19.7153C23.3469 20.7292 22.4656 21.468 21.4359 21.468C20.1148 21.468 19.1143 20.2746 19.3449 18.9738L19.9372 15.6326C19.9632 15.4244 19.9762 15.2813 19.9762 15.2032C19.9762 14.7999 19.8591 14.4876 19.6249 14.2664C19.4037 14.0452 19.0914 13.9347 18.6881 13.9347C18.2067 13.9347 17.8033 14.0843 17.4781 14.3835C17.1676 14.6811 16.9601 15.0944 16.8554 15.6234C16.8552 15.6245 16.8536 15.6244 16.8536 15.6233C16.8536 15.6222 16.852 15.6221 16.8518 15.6231L15.89 21.067C15.8491 21.2989 15.6475 21.468 15.412 21.468H14.0301C12.7035 21.468 11.6987 20.2697 11.93 18.9633L13.7313 8.78798C13.9117 7.7687 14.7976 7.02588 15.8327 7.02588H17.1397C17.7846 7.02588 18.2732 7.60812 18.1613 8.24325L17.8304 10.1208C17.735 10.662 18.5673 11.1164 19.0589 10.8706C19.6834 10.5453 20.3795 10.3827 21.1472 10.3827ZM25.0947 15.9644C25.3028 14.8064 25.6801 13.8046 26.2266 12.9588C26.7731 12.1001 27.4301 11.4496 28.1978 11.0072C28.9654 10.5518 29.7786 10.3241 30.6373 10.3241C31.3529 10.3241 31.9449 10.4737 32.4133 10.773C32.507 10.8303 32.5949 10.8919 32.6772 10.958C32.9441 11.1726 33.5509 11.0725 33.6122 10.7356C33.6411 10.5765 33.7797 10.4608 33.9415 10.4608H35.4375C36.761 10.4608 37.7633 11.6563 37.5322 12.9595L36.3336 19.7199C36.1543 20.7311 35.2753 21.468 34.2483 21.468H32.0351C31.8662 21.468 31.7385 21.315 31.7687 21.1487C31.8204 20.8646 31.3762 20.6477 31.1447 20.8204C30.969 20.9516 30.7803 21.0698 30.5788 21.1752C30.0063 21.4614 29.3622 21.6046 28.6466 21.6046C27.5407 21.6046 26.6494 21.2338 25.9729 20.4921C25.2963 19.7505 24.958 18.7227 24.958 17.4086C24.958 16.9141 25.0036 16.4327 25.0947 15.9644ZM32.6865 15.9644C32.7126 15.8473 32.7256 15.6911 32.7256 15.496C32.7256 15.0536 32.6085 14.7153 32.3743 14.4811C32.1401 14.2339 31.8213 14.1103 31.418 14.1103C30.9496 14.1103 30.5332 14.273 30.1689 14.5982C29.8176 14.9235 29.5899 15.3789 29.4858 15.9644C29.4598 16.0815 29.4468 16.2376 29.4468 16.4327C29.4468 16.8751 29.5639 17.2199 29.7981 17.4671C30.0323 17.7013 30.3511 17.8184 30.7544 17.8184C31.2228 17.8184 31.6326 17.6558 31.9839 17.3305C32.3482 17.0052 32.5824 16.5498 32.6865 15.9644ZM41.9244 7.02588C43.2513 7.02588 44.2562 8.22433 44.0249 9.53087L42.2235 19.7067C42.0432 20.7255 41.1577 21.468 40.123 21.468C38.7962 21.468 37.7913 20.2695 38.0226 18.963L39.8239 8.78718C40.0043 7.76837 40.8898 7.02588 41.9244 7.02588ZM47.8234 7.02588C49.1502 7.02588 50.1551 8.22432 49.9238 9.53087L48.1225 19.7067C47.9421 20.7255 47.0566 21.468 46.022 21.468C44.6951 21.468 43.6902 20.2695 43.9215 18.963L45.7229 8.78718C45.9032 7.76837 46.7887 7.02588 47.8234 7.02588ZM53.671 9.58252C52.9941 9.58252 52.4609 9.41987 52.0706 9.09461C51.6932 8.76935 51.5046 8.34647 51.5046 7.82605C51.5046 7.37065 51.628 6.94781 51.8755 6.55749C52.1225 6.16716 52.4672 5.86142 52.9098 5.64022C53.3649 5.40602 53.8661 5.28893 54.4126 5.28893C55.0761 5.28893 55.5964 5.45805 55.9739 5.79635C56.3642 6.12161 56.5594 6.55097 56.5594 7.08443C56.5594 7.53982 56.4356 7.95614 56.1886 8.33347C55.9411 8.7108 55.5964 9.01654 55.1542 9.25074C54.7116 9.47194 54.2174 9.58252 53.671 9.58252ZM53.1171 10.4608C54.4441 10.4608 55.4491 11.6595 55.2174 12.9662L54.0222 19.7073C53.8416 20.7258 52.9563 21.468 51.9219 21.468C50.5948 21.468 49.5899 20.2692 49.8216 18.9625L51.0168 12.2214C51.1974 11.2029 52.0827 10.4608 53.1171 10.4608ZM63.7882 9.21693C63.7428 9.47726 63.5032 9.64107 63.239 9.64107C62.9009 9.64107 62.6277 9.70613 62.4193 9.83623C62.1029 10.0471 62.3725 10.4608 62.7527 10.4608H62.842C63.2219 10.4608 63.5095 10.8041 63.4428 11.1781L63.0688 13.2746C62.9866 13.7356 62.5857 14.0713 62.1174 14.0713C61.6486 14.0713 61.2473 14.4078 61.1657 14.8695L60.3107 19.7061C60.1306 20.7252 59.2449 21.468 58.21 21.468C56.8833 21.468 55.8784 20.2698 56.1094 18.9634L56.8724 14.6474C56.9255 14.3469 56.6943 14.0713 56.3892 14.0713C56.0837 14.0713 55.8525 13.7952 55.9061 13.4944L56.3438 11.0407C56.4037 10.7051 56.6955 10.4608 57.0364 10.4608C57.374 10.4608 57.6598 10.2194 57.7505 9.89412C58.0738 8.73435 58.6737 7.81731 59.5504 7.14298C60.5652 6.34933 61.8666 5.95248 63.4536 5.95248C63.9331 5.95248 64.2793 6.40451 64.1968 6.87683L63.7882 9.21693ZM66.7222 10.4608C67.4618 10.4608 68.0973 10.9857 68.237 11.712C68.5126 13.1453 70.4401 13.4297 71.118 12.1372L71.4861 11.4353C71.8004 10.8361 72.4211 10.4608 73.0977 10.4608H73.2097C74.7742 10.4608 75.736 12.1727 74.9221 13.5088L67.4405 25.7917C67.0827 26.379 66.4448 26.7374 65.7571 26.7374C64.1925 26.7374 63.2516 25.0021 64.1052 23.6909L65.176 22.0461C65.6423 21.3298 65.785 20.4501 65.569 19.6231L63.9196 13.3082C63.5434 11.8679 64.6302 10.4608 66.1188 10.4608H66.7222Z" fill="white"/>
<line x1="13.4755" y1="24.5325" x2="64.6138" y2="24.5325" stroke="#FFD348" stroke-width="2.07316" stroke-linecap="round"/>
</g>
<defs>
<clipPath id="clip0_311_259">
<rect width="85" height="29.2745" fill="white"/>
</clipPath>
</defs>
</svg>
