<svg width="880" height="681" viewBox="0 0 880 681" fill="none" xmlns="http://www.w3.org/2000/svg">
<g opacity="0.9">
<path d="M771.455 589.597L93.6452 570.175C62.101 569.263 36.1618 545.148 33.0334 513.734L0.31608 190.471C-3.33366 153.843 25.0822 121.908 61.8403 121.387L816.294 110.959C854.356 110.437 884.206 143.676 879.513 181.477L835.586 534.59C831.545 566.656 803.781 590.509 771.455 589.597Z" fill="#00454A"/>
<mask id="mask0_83_100" style="mask-type:alpha" maskUnits="userSpaceOnUse" x="0" y="110" width="880" height="480">
<path d="M771.455 589.597L93.6452 570.175C62.101 569.263 36.1618 545.148 33.0334 513.734L0.31608 190.471C-3.33366 153.843 25.0822 121.908 61.8403 121.387L816.294 110.959C854.356 110.437 884.206 143.676 879.513 181.477L835.586 534.59C831.545 566.656 803.781 590.509 771.455 589.597Z" fill="#EAF9F3"/>
</mask>
<g mask="url(#mask0_83_100)">
<path d="M218.258 648.253H-323.338C-334.157 648.253 -342.89 639.52 -342.89 628.701V321.471C-342.89 310.652 -334.157 301.918 -323.338 301.918H218.258C229.077 301.918 237.81 310.652 237.81 321.471V628.57C237.81 639.52 229.077 648.253 218.258 648.253Z" stroke="#B8D8C7" stroke-width="1.8" stroke-miterlimit="10" stroke-linecap="round" stroke-linejoin="round"/>
<path d="M934 627.658H387.711C376.892 627.658 368.159 618.925 368.159 608.106V159.318C368.159 148.499 376.892 139.766 387.711 139.766H934C944.818 139.766 953.552 148.499 953.552 159.318V608.106C953.552 618.925 944.818 627.658 934 627.658Z" stroke="#B8D8C7" stroke-width="1.8" stroke-miterlimit="10" stroke-linecap="round" stroke-linejoin="round"/>
<path d="M68.6158 301.919H42.1552C39.2876 301.919 36.9413 299.833 36.5502 296.965L34.4647 278.195C34.0736 274.936 36.6806 271.938 40.0696 271.938H70.7014C74.0904 271.938 76.5671 274.806 76.3064 278.195L74.2208 296.965C73.8297 299.833 71.4835 301.919 68.6158 301.919Z" stroke="#B8D8C7" stroke-width="1.8" stroke-miterlimit="10" stroke-linecap="round" stroke-linejoin="round"/>
<path d="M52.1936 272.069C52.1936 272.069 41.7657 271.026 39.6802 256.948C39.6802 256.948 49.0652 259.686 52.0632 266.333C52.0632 266.333 53.3667 251.474 60.4055 250.04C60.4055 250.04 63.5338 261.12 58.5806 266.594C58.5806 266.594 62.3607 260.337 72.0065 260.468C72.0065 260.468 69.5299 269.331 60.0145 271.938" fill="#B8D8C7"/>
<path d="M214.086 366.832H96.5122C93.5142 366.832 91.0376 364.355 91.0376 361.357V325.642C91.0376 322.644 93.5142 320.167 96.5122 320.167H214.086C217.084 320.167 219.561 322.644 219.561 325.642V361.357C219.691 364.355 217.214 366.832 214.086 366.832Z" stroke="#B8D8C7" stroke-width="1.8" stroke-miterlimit="10" stroke-linecap="round" stroke-linejoin="round"/>
<path d="M168.855 332.681H141.743C140.7 332.681 139.788 331.768 139.788 330.725C139.788 329.683 140.7 328.77 141.743 328.77H168.855C169.898 328.77 170.81 329.683 170.81 330.725C170.81 331.768 169.898 332.681 168.855 332.681Z" fill="#B8D8C7"/>
<path d="M214.086 426.531H96.5122C93.5142 426.531 91.0376 424.055 91.0376 421.057V385.341C91.0376 382.343 93.5142 379.867 96.5122 379.867H214.086C217.084 379.867 219.561 382.343 219.561 385.341V421.057C219.691 424.055 217.214 426.531 214.086 426.531Z" stroke="#B8D8C7" stroke-width="1.8" stroke-miterlimit="10" stroke-linecap="round" stroke-linejoin="round"/>
<path d="M168.855 392.38H141.743C140.7 392.38 139.788 391.467 139.788 390.425C139.788 389.382 140.7 388.469 141.743 388.469H168.855C169.898 388.469 170.81 389.382 170.81 390.425C170.81 391.598 169.898 392.38 168.855 392.38Z" fill="#B8D8C7"/>
<path d="M817.857 468.634H700.283C697.285 468.634 694.809 466.157 694.809 463.159V427.444C694.809 424.446 697.285 421.969 700.283 421.969H817.857C820.855 421.969 823.332 424.446 823.332 427.444V463.159C823.462 466.157 820.985 468.634 817.857 468.634Z" stroke="#B8D8C7" stroke-width="1.8" stroke-miterlimit="10" stroke-linecap="round" stroke-linejoin="round"/>
<path d="M772.624 434.613H745.511C744.469 434.613 743.556 433.7 743.556 432.658C743.556 431.615 744.469 430.702 745.511 430.702H772.624C773.667 430.702 774.579 431.615 774.579 432.658C774.579 433.7 773.667 434.613 772.624 434.613Z" fill="#B8D8C7"/>
<path d="M666.916 468.634H549.342C546.344 468.634 543.868 466.157 543.868 463.159V427.444C543.868 424.446 546.344 421.969 549.342 421.969H666.916C669.914 421.969 672.391 424.446 672.391 427.444V463.159C672.391 466.157 669.914 468.634 666.916 468.634Z" stroke="#B8D8C7" stroke-width="1.8" stroke-miterlimit="10" stroke-linecap="round" stroke-linejoin="round"/>
<path d="M621.684 434.613H594.572C593.529 434.613 592.617 433.7 592.617 432.657C592.617 431.615 593.529 430.702 594.572 430.702H621.684C622.727 430.702 623.64 431.615 623.64 432.657C623.64 433.7 622.727 434.613 621.684 434.613Z" fill="#B8D8C7"/>
<path d="M64.1852 366.832H-53.3887C-56.3867 366.832 -58.8633 364.355 -58.8633 361.357V325.642C-58.8633 322.644 -56.3867 320.167 -53.3887 320.167H64.1852C67.1832 320.167 69.6598 322.644 69.6598 325.642V361.357C69.7902 364.355 67.3136 366.832 64.1852 366.832Z" stroke="#B8D8C7" stroke-width="1.8" stroke-miterlimit="10" stroke-linecap="round" stroke-linejoin="round"/>
<path d="M18.9519 332.681H-8.1605C-9.20329 332.681 -10.1157 331.768 -10.1157 330.725C-10.1157 329.683 -9.20329 328.77 -8.1605 328.77H18.9519C19.9947 328.77 20.9071 329.683 20.9071 330.725C20.9071 331.768 20.125 332.681 18.9519 332.681Z" fill="#B8D8C7"/>
<path d="M64.1852 426.531H-53.3887C-56.3867 426.531 -58.8633 424.055 -58.8633 421.057V385.341C-58.8633 382.343 -56.3867 379.867 -53.3887 379.867H64.1852C67.1832 379.867 69.6598 382.343 69.6598 385.341V421.057C69.7902 424.055 67.3136 426.531 64.1852 426.531Z" stroke="#B8D8C7" stroke-width="1.8" stroke-miterlimit="10" stroke-linecap="round" stroke-linejoin="round"/>
<path d="M18.9519 392.38H-8.1605C-9.20329 392.38 -10.1157 391.467 -10.1157 390.425C-10.1157 389.382 -9.20329 388.469 -8.1605 388.469H18.9519C19.9947 388.469 20.9071 389.382 20.9071 390.425C20.9071 391.598 20.125 392.38 18.9519 392.38Z" fill="#B8D8C7"/>
<path d="M989.006 276.37H395.923C392.664 276.37 389.927 273.633 389.927 270.374V166.487C389.927 163.228 392.664 160.491 395.923 160.491H989.006C992.265 160.491 995.002 163.228 995.002 166.487V270.374C995.002 273.633 992.395 276.37 989.006 276.37Z" stroke="#B8D8C7" stroke-width="1.8" stroke-miterlimit="10" stroke-linecap="round" stroke-linejoin="round"/>
<path d="M989.006 405.284H395.923C392.664 405.284 389.927 402.547 389.927 399.288V295.401C389.927 292.142 392.664 289.405 395.923 289.405H989.006C992.265 289.405 995.002 292.142 995.002 295.401V399.288C995.002 402.677 992.395 405.284 989.006 405.284Z" stroke="#B8D8C7" stroke-width="1.8" stroke-miterlimit="10" stroke-linecap="round" stroke-linejoin="round"/>
<path d="M442.848 210.805H429.944V276.37H442.848V210.805Z" stroke="#B8D8C7" stroke-width="1.8" stroke-miterlimit="10" stroke-linecap="round" stroke-linejoin="round"/>
<path d="M456.142 228.663H442.716V276.37H456.142V228.663Z" stroke="#B8D8C7" stroke-width="1.8" stroke-miterlimit="10" stroke-linecap="round" stroke-linejoin="round"/>
<path d="M831.676 339.589H818.771V405.154H831.676V339.589Z" stroke="#B8D8C7" stroke-width="1.8" stroke-miterlimit="10" stroke-linecap="round" stroke-linejoin="round"/>
<path d="M845.102 357.447H831.676V405.154H845.102V357.447Z" stroke="#B8D8C7" stroke-width="1.8" stroke-miterlimit="10" stroke-linecap="round" stroke-linejoin="round"/>
<path d="M805.476 339.589H792.571V405.154H805.476V339.589Z" stroke="#B8D8C7" stroke-width="1.8" stroke-miterlimit="10" stroke-linecap="round" stroke-linejoin="round"/>
<path d="M792.751 342.031L780.445 338.146L760.704 400.669L773.009 404.554L792.751 342.031Z" stroke="#B8D8C7" stroke-width="1.8" stroke-miterlimit="10" stroke-linecap="round" stroke-linejoin="round"/>
<path d="M818.898 357.447H805.473V405.154H818.898V357.447Z" stroke="#B8D8C7" stroke-width="1.8" stroke-miterlimit="10" stroke-linecap="round" stroke-linejoin="round"/>
<path d="M657.661 210.805H644.757V276.37H657.661V210.805Z" stroke="#B8D8C7" stroke-width="1.8" stroke-miterlimit="10" stroke-linecap="round" stroke-linejoin="round"/>
<path d="M671.085 228.663H657.659V276.37H671.085V228.663Z" stroke="#B8D8C7" stroke-width="1.8" stroke-miterlimit="10" stroke-linecap="round" stroke-linejoin="round"/>
<path d="M530.18 210.805H517.276V276.37H530.18V210.805Z" stroke="#B8D8C7" stroke-width="1.8" stroke-miterlimit="10" stroke-linecap="round" stroke-linejoin="round"/>
<path d="M517.455 213.226L505.149 209.341L485.407 271.864L497.713 275.749L517.455 213.226Z" stroke="#B8D8C7" stroke-width="1.8" stroke-miterlimit="10" stroke-linecap="round" stroke-linejoin="round"/>
<path d="M543.609 228.663H530.183V276.37H543.609V228.663Z" stroke="#B8D8C7" stroke-width="1.8" stroke-miterlimit="10" stroke-linecap="round" stroke-linejoin="round"/>
<path d="M831.544 219.408L832.978 199.986C833.108 198.683 832.065 197.64 830.762 197.64H825.157H819.552C818.249 197.64 817.336 198.683 817.336 199.986L818.77 219.408C818.77 219.408 807.039 226.968 807.169 233.225C807.299 238.048 810.167 261.12 811.471 271.287C811.862 274.154 814.208 276.24 817.075 276.24H825.157H833.239C836.106 276.24 838.453 274.154 838.844 271.287C840.147 261.12 843.015 238.048 843.145 233.225C843.275 226.838 831.544 219.408 831.544 219.408Z" fill="#B8D8C7"/>
<path d="M779.536 219.408L780.97 199.986C781.1 198.683 780.058 197.64 778.754 197.64H773.149H767.544C766.241 197.64 765.328 198.683 765.328 199.986L766.762 219.408C766.762 219.408 755.031 226.968 755.161 233.225C755.292 238.048 758.159 261.12 759.463 271.287C759.854 274.154 762.2 276.24 765.068 276.24H773.149H781.231C784.098 276.24 786.445 274.154 786.836 271.287C788.139 261.12 791.007 238.048 791.137 233.225C791.268 226.838 779.536 219.408 779.536 219.408Z" fill="#B8D8C7"/>
<path d="M-1.63916 528.333H1244.23" stroke="#B8D8C7" stroke-width="1.8" stroke-miterlimit="10" stroke-linecap="round" stroke-linejoin="round"/>
</g>
<path d="M286.823 232.313L151.522 262.945C147.742 263.727 144.092 261.25 143.571 257.47L116.328 84.4983C115.677 80.0664 119.457 76.156 123.889 76.9381L264.664 100.531C267.402 101.052 269.618 103.138 270.139 105.875L290.864 226.187C291.255 229.054 289.561 231.661 286.823 232.313Z" fill="#63737A"/>
<path d="M294.378 232.182L158.164 262.944C154.384 263.857 150.734 261.25 150.083 257.47L122.579 83.3249C121.928 78.8931 125.708 74.9826 130.27 75.7647L271.958 99.4881C274.695 100.009 276.911 102.095 277.433 104.963L298.419 226.056C298.94 228.793 297.115 231.531 294.378 232.182Z" fill="#22272E"/>
<path d="M180.848 114.999C181.5 118.78 179.154 121.517 175.634 121.256C172.115 120.995 168.595 117.606 167.944 113.696C167.292 109.786 169.769 107.048 173.288 107.439C176.938 107.83 180.196 111.219 180.848 114.999Z" fill="#051A29"/>
<path d="M184.758 138.853L171.984 138.332C168.986 138.201 166.249 135.464 165.727 132.336C164.554 125.297 169.116 119.953 175.503 120.474C181.76 120.996 187.626 126.861 188.799 133.639C189.32 136.637 187.495 138.984 184.758 138.853Z" fill="#051A29"/>
<path d="M193.103 228.272C190.627 228.663 188.28 226.708 187.759 223.84L177.331 159.318C176.94 156.58 178.634 154.234 181.111 154.234C183.588 154.234 185.934 156.45 186.455 159.187L196.753 222.406C197.144 225.274 195.58 227.881 193.103 228.272Z" fill="#63737A"/>
<path d="M181.891 188.125L187.626 223.84C188.147 226.708 190.494 228.663 192.97 228.272C195.447 227.881 197.011 225.274 196.62 222.537L190.885 187.473C190.494 184.736 188.017 182.65 185.54 182.78C183.194 182.911 181.5 185.257 181.891 188.125Z" fill="#008BE1"/>
<path d="M223.342 119.171C223.863 122.56 222.039 125.167 219.171 124.906C216.303 124.645 213.436 121.647 212.784 118.128C212.263 114.608 214.087 112.132 217.085 112.393C219.953 112.653 222.69 115.651 223.342 119.171Z" fill="#F4C2C9"/>
<path d="M226.859 140.678L216.562 140.287C214.215 140.157 211.869 137.81 211.348 134.943C210.305 128.556 213.824 123.733 219.038 124.124C224.122 124.515 229.075 129.859 230.118 135.986C230.509 138.723 229.075 140.808 226.859 140.678Z" fill="#F4C2C9"/>
<path d="M235.2 221.363C233.245 221.754 231.159 219.93 230.768 217.323L221.122 159.187C220.731 156.711 222.035 154.625 224.12 154.625C226.206 154.625 228.161 156.711 228.552 159.187L238.068 216.149C238.459 218.756 237.286 221.103 235.2 221.363Z" fill="#63737A"/>
<path d="M225.167 183.432L230.771 217.062C231.163 219.408 232.987 221.363 234.812 221.363C237.028 221.233 238.462 218.887 238.071 216.15L232.466 182.911C232.075 180.434 230.12 178.479 228.034 178.609C226.079 178.87 224.775 180.956 225.167 183.432Z" fill="#008BE1"/>
<path d="M258.275 122.56C258.796 125.688 257.362 128.034 255.016 127.774C252.67 127.513 250.193 124.776 249.672 121.647C249.15 118.519 250.715 116.173 253.061 116.433C255.407 116.694 257.753 119.431 258.275 122.56Z" fill="#008BE1"/>
<path d="M261.664 142.242L253.061 141.851C251.106 141.721 249.151 139.635 248.63 137.028C247.587 131.163 250.454 126.861 254.886 127.122C259.188 127.513 263.359 132.336 264.271 137.81C264.662 140.417 263.489 142.373 261.664 142.242Z" fill="#008BE1"/>
<path d="M269.875 215.758C268.181 216.019 266.486 214.325 266.095 212.109L257.101 159.318C256.71 156.972 257.753 155.147 259.447 155.147C261.142 155.147 262.836 156.972 263.227 159.187L272.091 211.066C272.613 213.412 271.57 215.367 269.875 215.758Z" fill="#63737A"/>
<path d="M263.619 197.119L266.096 211.848C266.487 214.064 267.921 215.758 269.615 215.758C271.44 215.758 272.613 213.543 272.222 211.066L269.746 196.467C269.355 194.251 267.66 192.426 266.096 192.687C264.271 192.817 263.228 194.772 263.619 197.119Z" fill="#008BE1"/>
<path d="M802.864 286.668L674.471 271.678C670.691 271.287 667.953 267.898 668.214 264.118L678.12 124.385C678.381 120.995 680.988 118.258 684.507 117.867L818.245 103.79C821.764 103.399 824.632 106.266 824.371 109.786L809.12 281.584C808.729 284.712 805.862 287.059 802.864 286.668Z" fill="#63737A"/>
<path d="M797.268 286.668L668.223 271.547C664.443 271.156 661.706 267.767 661.966 263.987L671.873 123.472C672.134 120.083 674.74 117.215 678.26 116.824L812.649 102.616C816.168 102.225 819.166 105.223 818.775 108.612L803.524 281.324C803.264 284.713 800.396 287.059 797.268 286.668Z" fill="#22272E"/>
<path d="M716.19 154.104L684.515 155.668C683.211 155.668 682.169 154.625 682.299 153.322L683.603 134.421C683.733 133.379 684.515 132.466 685.558 132.466L717.363 129.859C718.666 129.729 719.839 130.902 719.709 132.205L718.145 152.149C718.145 153.191 717.232 154.104 716.19 154.104Z" fill="#63737A"/>
<path d="M732.744 168.051L729.225 213.543L678.128 211.978L678.78 202.333L685.819 192.948C687.122 191.123 689.86 190.862 691.424 192.426C693.249 194.251 696.377 193.599 697.42 191.383L703.025 179.782C704.198 177.306 707.587 176.915 709.412 179.131L716.06 187.473C717.754 189.559 721.013 189.298 722.316 186.952L732.744 168.051Z" fill="#051A29"/>
<path d="M683.211 257.209C682.168 257.079 681.256 256.166 681.386 255.124L682.429 240.525C682.559 239.482 683.472 238.569 684.514 238.7C685.687 238.83 686.47 239.743 686.339 240.916L685.296 255.515C685.296 256.427 684.384 257.34 683.211 257.209Z" fill="#051A29"/>
<path d="M700.154 256.818L701.718 236.093C701.848 235.05 702.761 234.137 703.804 234.268H704.064C705.237 234.398 706.019 235.311 705.889 236.484L704.325 257.209C704.195 258.382 703.282 259.164 702.109 259.034H701.848C700.936 258.904 700.154 257.861 700.154 256.818Z" fill="#051A29"/>
<path d="M718.927 258.382L721.013 231.922C721.143 230.748 722.186 229.836 723.359 229.836C724.663 229.836 725.575 231.009 725.445 232.313L723.359 258.773C723.229 260.077 722.186 260.989 720.882 260.859C719.84 260.598 718.927 259.555 718.927 258.382Z" fill="#051A29"/>
<path d="M737.698 260.077L740.435 227.49C740.566 226.317 741.608 225.404 742.781 225.404H743.042C744.346 225.404 745.258 226.577 745.128 227.881L742.39 260.468C742.26 261.771 741.217 262.684 739.914 262.553H739.653C738.48 262.423 737.568 261.25 737.698 260.077Z" fill="#008BE1"/>
<path d="M756.463 261.902L759.721 223.188C759.852 222.015 760.894 221.103 762.068 221.103H762.589C763.892 221.103 764.805 222.276 764.674 223.579L761.416 262.293C761.285 263.596 760.243 264.509 758.939 264.378H758.548C757.245 264.117 756.332 263.075 756.463 261.902Z" fill="#008BE1"/>
<path d="M777.975 266.073H777.323C776.15 265.942 775.238 264.9 775.238 263.596L779.018 218.756C779.148 217.583 780.191 216.671 781.364 216.671H782.016C783.319 216.671 784.232 217.844 784.232 219.148L780.452 263.987C780.321 265.291 779.148 266.203 777.975 266.073Z" fill="#F4C2C9"/>
<path d="M778.883 174.308L784.488 184.084C779.796 190.341 773.93 194.251 767.804 194.251C755.812 194.251 747.6 179.261 749.164 160.752C750.598 142.112 761.417 126.209 773.669 125.297C779.926 124.776 785.27 128.295 788.92 134.291L781.621 144.588C779.535 140.939 776.276 138.853 772.496 138.984C765.197 139.505 758.549 149.02 757.637 160.361C756.724 171.571 761.808 180.695 768.977 180.565C772.496 180.565 776.016 178.218 778.883 174.308Z" fill="#008BE1"/>
<path d="M793.356 159.057C792.444 168.833 789.185 177.827 784.493 184.214L778.888 174.438C781.625 170.658 783.711 165.314 784.102 159.448C784.623 153.582 783.45 148.369 781.364 144.719L788.664 134.421C792.314 140.417 794.138 149.151 793.356 159.057Z" fill="#051A29"/>
<path d="M801.435 116.955C801.565 115.782 801.044 114.869 800.131 114.869C799.349 115 798.567 115.912 798.567 117.086C798.436 118.259 798.958 119.171 799.74 119.171C800.522 119.171 801.305 118.259 801.435 116.955Z" fill="#63737A"/>
<path d="M809.391 116.303C809.521 115.13 808.869 114.217 808.087 114.217C807.305 114.348 806.523 115.26 806.392 116.564C806.262 117.737 806.914 118.65 807.696 118.65C808.608 118.52 809.26 117.477 809.391 116.303Z" fill="#63737A"/>
<path d="M637.976 167.66L595.353 170.267C593.137 170.397 591.312 168.572 591.442 166.357L597.047 82.2821C597.177 80.0662 598.872 78.2413 601.088 77.8503L644.624 70.0294C646.97 69.6384 649.056 71.4632 648.926 73.8095L642.539 162.968C642.408 165.574 640.453 167.53 637.976 167.66Z" fill="#22272E"/>
<path d="M634.72 166.748L592.096 169.355C589.88 169.485 588.055 167.66 588.186 165.444L593.791 81.3697C593.921 79.1538 595.616 77.329 597.831 76.9379L641.368 69.117C643.714 68.726 645.8 70.5509 645.669 72.8971L639.282 162.055C639.152 164.662 637.197 166.617 634.72 166.748Z" fill="#008BE1"/>
<path d="M619.209 80.5881L613.994 81.5007C613.473 81.6311 613.082 81.24 613.082 80.5881C613.082 80.0666 613.603 79.5451 614.124 79.4148L619.339 78.5022C619.861 78.3718 620.252 78.7629 620.252 79.4148C620.252 80.0666 619.73 80.5881 619.209 80.5881Z" fill="#22272E"/>
<path d="M623.377 79.9363L622.856 80.0666C622.334 80.197 621.943 79.8059 621.943 79.154C621.943 78.6325 622.465 77.9807 622.986 77.9807L623.508 77.8503C624.029 77.7199 624.42 78.1111 624.42 78.7629C624.42 79.2844 624.029 79.8059 623.377 79.9363Z" fill="#22272E"/>
<path d="M616.085 90.7548L602.92 92.8404C601.877 92.9707 601.095 92.1886 601.095 91.0155C601.225 89.8424 602.138 88.7996 603.18 88.6692L616.345 86.5836C617.519 86.4533 618.301 87.2354 618.17 88.4085C618.04 89.5817 617.128 90.6244 616.085 90.7548Z" fill="#22272E"/>
<path d="M632.767 114.478L601.092 118.519C600.049 118.649 599.267 117.867 599.267 116.824L600.44 99.8791C600.44 99.097 601.092 98.5756 601.744 98.4453L633.549 93.6224C634.591 93.4921 635.374 94.2741 635.374 95.3169L634.07 113.044C634.07 113.696 633.549 114.348 632.767 114.478Z" fill="#051A29"/>
<path d="M613.21 130.511L600.045 131.945C599.002 132.075 598.22 131.293 598.22 130.12C598.35 128.947 599.262 127.904 600.305 127.904L613.47 126.47C614.513 126.34 615.426 127.122 615.295 128.295C615.295 129.338 614.383 130.381 613.21 130.511Z" fill="#22272E"/>
<path d="M611.259 159.579L598.224 160.491C597.182 160.621 596.399 159.709 596.399 158.536C596.53 157.363 597.442 156.45 598.485 156.32L611.52 155.277C612.563 155.147 613.475 156.059 613.345 157.232C613.345 158.405 612.432 159.448 611.259 159.579Z" fill="#F4C2C9"/>
<path d="M610.217 150.063L598.877 150.976C597.964 151.106 597.052 150.324 597.182 149.281L597.834 138.853C597.834 138.071 598.485 137.419 599.268 137.419L610.738 136.246C611.651 136.116 612.563 136.898 612.433 137.941L611.651 148.629C611.52 149.411 610.999 149.933 610.217 150.063Z" fill="#051A29"/>
<path d="M630.289 148.369L618.166 149.411C617.254 149.542 616.342 148.629 616.472 147.717L617.254 136.898C617.254 136.116 617.906 135.464 618.688 135.464L630.81 134.291C631.723 134.161 632.635 134.943 632.505 135.985L631.723 146.935C631.723 147.717 631.071 148.238 630.289 148.369Z" fill="white"/>
<path d="M248.368 60.7747C261.614 60.7747 272.352 50.0367 272.352 36.7907C272.352 23.5447 261.614 12.8067 248.368 12.8067C235.122 12.8067 224.384 23.5447 224.384 36.7907C224.384 50.0367 235.122 60.7747 248.368 60.7747Z" stroke="#008BE1" stroke-width="1.8" stroke-miterlimit="10" stroke-linecap="round" stroke-linejoin="round"/>
<path d="M239.372 36.139C238.59 35.2265 238.199 34.0534 238.199 32.6196C238.199 31.1858 238.59 30.0126 239.372 29.1002C240.154 28.1878 241.197 27.7967 242.5 27.7967C243.804 27.7967 244.846 28.1878 245.629 29.1002C246.411 30.0126 246.802 31.1858 246.802 32.6196C246.802 34.0534 246.411 35.3569 245.629 36.139C244.846 37.0514 243.804 37.4425 242.5 37.4425C241.197 37.4425 240.154 37.0514 239.372 36.139ZM244.195 34.8355C244.586 34.3141 244.716 33.532 244.716 32.4892C244.716 31.4464 244.586 30.7947 244.195 30.143C243.804 29.6216 243.282 29.3609 242.631 29.3609C241.979 29.3609 241.457 29.6216 241.066 30.143C240.675 30.6643 240.415 31.4464 240.415 32.4892C240.415 33.4017 240.675 34.1838 241.066 34.8355C241.457 35.3569 241.979 35.6176 242.631 35.6176C243.152 35.6176 243.804 35.3569 244.195 34.8355ZM253.58 27.7967H254.753C255.144 27.7967 255.405 28.3181 255.144 28.5788L243.673 45.3937C243.543 45.524 243.413 45.6544 243.282 45.6544H242.109C241.718 45.6544 241.457 45.133 241.718 44.8723L253.189 28.0574C253.189 27.9271 253.319 27.7967 253.58 27.7967ZM251.234 44.6116C250.451 43.6992 250.06 42.526 250.06 41.0922C250.06 39.6584 250.451 38.4852 251.234 37.5728C252.016 36.6604 253.058 36.2693 254.362 36.2693C255.665 36.2693 256.708 36.6604 257.49 37.5728C258.272 38.4852 258.663 39.6584 258.663 41.0922C258.663 42.526 258.272 43.6992 257.49 44.6116C256.708 45.524 255.665 45.9151 254.362 45.9151C253.058 45.9151 252.016 45.3937 251.234 44.6116ZM255.926 43.1778C256.317 42.6564 256.447 41.8743 256.447 40.9618C256.447 40.0494 256.317 39.2673 255.926 38.7459C255.535 38.0942 254.753 37.8335 253.971 37.8335C253.449 37.9638 252.928 38.2245 252.667 38.6156C252.276 39.137 252.016 39.9191 252.016 40.9618C252.016 42.0046 252.276 42.6564 252.667 43.3081C253.058 43.8295 253.449 44.0902 253.971 44.0902C254.753 44.2206 255.535 43.8295 255.926 43.1778Z" fill="#008BE1"/>
<path d="M576.976 69.7688C550.646 86.4533 522.621 85.1498 515.712 68.4653C509.586 53.8663 522.621 32.4893 543.868 19.5848C564.723 6.81072 589.229 4.8555 600.048 16.0654C612.17 28.7092 602.655 53.3449 576.976 69.7688Z" fill="#22272E"/>
<path d="M573.712 64.4245C547.382 81.1091 519.357 79.8056 512.449 63.121C506.322 48.5221 519.357 27.145 540.604 14.2406C561.46 1.46645 585.965 -0.488765 596.784 10.7212C608.906 23.3649 599.391 48.0007 573.712 64.4245Z" fill="#051A29"/>
<path d="M566.292 53.3449C550.52 63.2514 533.314 62.9907 528.491 53.2146C523.929 44.2206 531.88 30.534 545.697 22.0614C559.383 13.7191 575.155 12.6764 581.542 20.2365C588.32 28.4485 581.933 43.4385 566.292 53.3449Z" fill="#008BE1"/>
<path d="M559.635 43.1777C553.378 47.0881 546.47 47.0881 544.254 43.4384C542.168 39.7886 545.166 34.0533 551.162 30.4036C557.028 26.7538 563.676 26.4931 566.152 29.8822C568.629 33.2712 565.761 39.2672 559.635 43.1777Z" fill="#F4C2C9"/>
<path d="M553.385 30.7948C551.039 32.2286 547.91 31.4465 546.346 29.1002L533.833 4.20379C533.181 2.90031 533.702 1.33613 534.876 0.554042C536.179 -0.228046 537.743 0.163006 538.656 1.33614L554.949 23.8863C556.513 26.2326 555.731 29.3609 553.385 30.7948Z" fill="#22272E"/>
<path d="M536.955 9.02655L531.35 8.6355C529.786 8.50515 528.874 10.33 529.786 11.5032C532.523 15.1529 536.173 17.8902 540.344 19.4544L542.951 20.4972C543.212 20.6275 543.603 20.2365 543.342 19.9758L538.259 9.93898C538.128 9.41759 537.607 9.1569 536.955 9.02655Z" fill="#008BE1"/>
<path d="M541.649 6.15894L543.996 1.07537C544.647 -0.358457 546.603 -0.358457 547.254 1.07537C549.21 5.11616 549.992 9.67835 549.34 14.1102L548.949 16.9778C548.949 17.2385 548.427 17.3689 548.297 17.1082L541.78 7.98381C541.519 7.46241 541.389 6.81068 541.649 6.15894Z" fill="#008BE1"/>
<path d="M552.729 29.752L556.901 36.792" stroke="#22272E" stroke-width="1.8" stroke-miterlimit="10" stroke-linecap="round" stroke-linejoin="round"/>
<path d="M437.374 603.152C434.506 598.069 406.742 603.152 406.742 603.152C406.742 603.152 407.264 613.971 407.524 622.183C416.518 626.224 427.337 626.615 437.113 623.878C436.983 615.405 437.374 603.152 437.374 603.152Z" fill="#B28D93"/>
<path d="M407.394 622.183C407.524 625.964 407.524 629.092 407.524 630.395C407.524 631.96 405.7 634.827 405.048 639.259C404.526 642.518 405.048 646.95 404.396 650.86C403.744 655.553 402.962 660.245 402.571 664.677C401.398 677.581 408.046 679.015 415.476 679.928C422.905 680.71 447.541 681.492 448.323 674.323C449.105 667.154 442.067 653.858 440.502 647.732C438.938 641.605 438.026 634.697 437.244 630.656C437.113 629.483 436.983 627.006 436.983 623.878C427.207 626.615 416.388 626.094 407.394 622.183Z" fill="#051A29"/>
<path d="M448.457 674.192C447.674 681.361 423.039 680.579 415.609 679.797C408.179 679.015 401.531 677.451 402.704 664.546C403.095 660.245 403.747 655.422 404.529 650.729C405.181 646.819 404.529 642.387 405.181 639.128C405.702 635.609 407.006 633.132 407.527 631.438C408.049 634.827 410.656 635.87 410.916 643.3C411.307 650.99 410.525 654.901 419.519 652.424C431.381 649.165 435.943 653.206 438.42 651.251C440.505 649.426 439.723 643.169 439.593 641.996C439.984 643.821 440.375 645.776 440.766 647.601C442.069 653.727 449.239 667.153 448.457 674.192Z" fill="#22272E"/>
<path d="M433.988 614.884C435.031 614.623 436.204 614.232 437.247 613.841C437.377 608.106 437.508 603.022 437.508 603.022C434.64 597.939 406.876 603.022 406.876 603.022C406.876 603.022 407.006 606.933 407.267 611.886C415.349 615.014 424.603 616.969 433.988 614.884Z" fill="#896068"/>
<path d="M427.339 657.899C431.37 657.899 434.639 655.798 434.639 653.206C434.639 650.615 431.37 648.514 427.339 648.514C423.308 648.514 420.04 650.615 420.04 653.206C420.04 655.798 423.308 657.899 427.339 657.899Z" fill="white"/>
<path d="M482.474 625.442C483.125 630.526 483.516 634.957 483.256 636.131C482.604 638.868 480.518 650.338 478.824 655.292C477.129 660.245 467.484 674.323 473.871 678.624C480.258 683.056 512.845 680.319 516.364 677.321C519.883 674.323 518.71 665.98 517.407 655.292C516.103 644.603 512.193 633.654 512.193 632.09C512.193 631.568 512.063 627.528 511.932 622.574C503.069 627.006 492.771 628.701 482.474 625.442Z" fill="#051A29"/>
<path d="M480.127 609.018C480.127 609.018 481.561 617.882 482.473 625.442C492.771 628.701 503.068 627.006 511.932 622.575C511.541 613.19 511.019 600.155 510.498 599.373C509.846 598.199 482.995 597.678 480.127 609.018Z" fill="#B28D93"/>
<path d="M516.49 677.321C512.97 680.319 480.383 683.056 473.996 678.624C467.609 674.192 477.255 660.115 478.949 655.292C480.122 651.773 481.556 644.734 482.469 640.041C482.208 641.605 480.122 653.858 482.469 654.64C484.945 655.422 491.202 650.339 499.414 652.164C507.495 653.858 511.797 655.162 511.797 650.078C511.797 644.995 510.233 636.652 511.015 635.218C511.667 633.654 512.318 632.22 512.318 632.22C512.318 633.785 516.229 644.734 517.532 655.422C518.836 665.981 520.009 674.192 516.49 677.321Z" fill="#22272E"/>
<path d="M511.536 613.581C511.275 606.542 510.884 599.894 510.493 599.373C509.841 598.199 482.859 597.678 479.992 609.018C479.992 609.018 480.513 612.668 481.295 617.23C492.114 619.577 502.281 617.621 511.536 613.581Z" fill="#896068"/>
<path d="M493.556 659.333C497.587 659.333 500.855 657.232 500.855 654.64C500.855 652.049 497.587 649.948 493.556 649.948C489.524 649.948 486.256 652.049 486.256 654.64C486.256 657.232 489.524 659.333 493.556 659.333Z" fill="white"/>
<path d="M506.714 276.11C506.714 276.11 519.358 299.181 512.189 356.534C505.02 413.887 501.37 428.356 502.673 432.006C503.977 435.656 510.364 463.159 510.755 505.652C511.146 548.146 512.058 568.48 515.839 580.342C519.619 592.203 521.313 601.067 511.407 608.106C501.631 615.275 484.294 614.232 476.213 610.452C468.131 606.672 467.74 600.285 468.392 586.077C469.044 571.869 462.005 527.812 456.139 501.09C452.62 484.927 449.622 466.287 447.667 452.862C446.363 443.998 445.711 437.48 445.711 435.395C445.711 430.311 437.89 355.492 437.89 351.711C437.89 347.931 429.418 345.324 427.332 329.292C425.247 313.389 429.027 276.24 429.027 276.24C429.027 276.24 499.545 266.073 506.714 276.11Z" fill="#22272E"/>
<path d="M388.102 271.678C388.102 271.678 373.894 305.829 381.976 367.875C390.057 429.92 391.1 435.916 391.491 438.654C391.882 441.391 392.143 487.795 395.923 528.072C399.703 568.35 392.143 589.075 395.923 598.851C399.703 608.627 411.826 611.104 420.298 610.713C428.771 610.322 444.673 607.324 444.673 591.682C444.673 576.04 442.588 551.405 444.673 518.557C446.759 485.709 449.887 452.21 450.8 436.568C451.842 420.926 461.227 330.204 462.922 317.3C464.616 304.395 458.621 283.409 435.028 275.197C411.435 267.246 388.102 271.678 388.102 271.678Z" fill="#22272E"/>
<path d="M379.499 326.684C379.499 326.684 387.19 324.86 389.927 315.214C392.664 305.568 393.316 299.051 393.316 299.051" stroke="#63737A" stroke-width="1.8" stroke-miterlimit="10" stroke-linecap="round" stroke-linejoin="round"/>
<path d="M514.152 330.074C514.152 330.074 504.116 325.381 500.987 314.693C497.859 304.134 498.25 298.008 498.25 298.008" stroke="#63737A" stroke-width="1.8" stroke-miterlimit="10" stroke-linecap="round" stroke-linejoin="round"/>
<path d="M420.168 341.544C427.598 341.805 437.635 350.147 437.635 350.147C437.635 350.147 441.285 346.889 448.975 342.848" stroke="#63737A" stroke-width="1.8" stroke-miterlimit="10" stroke-linecap="round" stroke-linejoin="round"/>
<path d="M416.779 458.857C427.289 458.857 435.81 450.103 435.81 439.305C435.81 428.507 427.289 419.753 416.779 419.753C406.268 419.753 397.748 428.507 397.748 439.305C397.748 450.103 406.268 458.857 416.779 458.857Z" stroke="#63737A" stroke-width="1.8" stroke-miterlimit="10" stroke-linecap="round" stroke-linejoin="round"/>
<path d="M471.131 458.857C481.642 458.857 490.162 450.103 490.162 439.305C490.162 428.507 481.642 419.753 471.131 419.753C460.621 419.753 452.101 428.507 452.101 439.305C452.101 450.103 460.621 458.857 471.131 458.857Z" stroke="#63737A" stroke-width="1.8" stroke-miterlimit="10" stroke-linecap="round" stroke-linejoin="round"/>
<path d="M447.675 452.731C446.372 443.867 445.72 437.35 445.72 435.264C445.72 430.181 437.899 355.361 437.899 351.581C437.899 347.801 429.426 345.194 427.341 329.161" stroke="#63737A" stroke-width="1.8" stroke-miterlimit="10" stroke-linecap="round" stroke-linejoin="round"/>
<path d="M305.199 93.7528C305.199 93.7528 304.026 89.8423 303.505 78.8931C303.375 76.2862 307.546 70.5509 308.067 68.8563C308.589 67.1618 312.499 67.8135 311.456 73.5488C310.413 79.2842 314.454 89.8423 313.281 93.8831C312.238 98.0543 305.199 95.5776 305.199 93.7528Z" fill="#B28D93"/>
<path d="M294.514 58.9498L329.708 131.684C330.751 133.9 332.967 135.334 335.444 135.203L388.234 134.291C390.581 134.291 392.015 131.945 391.102 129.729L360.079 56.7339C359.037 54.3877 356.69 52.8235 354.214 52.9538L297.382 54.2573C295.036 54.3877 293.471 56.7339 294.514 58.9498Z" fill="#22272E"/>
<path d="M314.588 48.9131L334.14 48.131C335.835 48.131 337.399 49.1738 337.92 50.8683L338.702 53.4753C338.963 54.2574 338.311 55.1698 337.529 55.1698L313.936 55.8215C313.284 55.8215 312.763 55.3001 312.633 54.7787L312.242 51.9111C311.981 50.3469 313.154 48.9131 314.588 48.9131Z" fill="#008BE1"/>
<path d="M365.937 178.349L361.505 181.998C361.505 181.998 355.639 163.489 350.295 150.845C345.081 138.201 341.562 122.169 341.692 120.344C341.822 118.519 343.387 113.305 339.867 107.83C336.478 102.486 332.307 100.4 332.307 100.4C332.307 100.4 335.305 98.9666 340.91 96.6204C346.515 94.1438 343.908 91.6672 340.519 92.0582C337.26 92.4492 328.657 93.6224 328.657 93.6224C328.657 93.6224 332.828 90.3637 335.305 88.4085C337.782 86.4533 342.996 84.3677 341.692 82.2821C340.519 80.4572 335.044 82.4125 332.568 83.1946C330.091 83.9766 321.358 88.2781 321.358 88.2781C321.358 88.2781 326.572 82.1518 328.918 79.1538C331.264 76.1558 337.521 73.2881 336.739 70.2901C335.957 67.2921 328.266 71.5936 324.616 73.8095C320.967 76.0254 314.058 83.0642 314.058 83.0642C314.058 83.0642 314.319 76.2861 314.58 73.2881C314.84 70.2901 316.665 62.7299 314.449 60.905C311.582 58.5588 310.018 65.8583 308.584 71.9846C307.15 78.111 303.761 90.494 304.543 94.1438C305.325 97.7935 309.757 102.225 313.537 107.179C317.317 112.132 321.358 117.997 322.01 119.692C322.661 121.517 327.484 199.465 331.786 210.153C336.087 220.842 345.994 239.221 387.184 206.634C387.184 206.634 390.964 183.823 383.403 177.697C375.713 171.831 365.937 178.349 365.937 178.349Z" fill="#B28D93"/>
<path d="M416.389 136.507C416.389 136.507 406.353 138.332 393.709 151.888C381.065 165.444 365.945 178.349 365.945 178.349C365.945 178.349 377.676 204.418 384.715 212.239C384.715 212.239 409.351 195.815 418.996 186.17C428.773 176.524 430.337 139.896 416.389 136.507Z" fill="#008BE1"/>
<path d="M371.158 173.786C371.158 173.786 379.37 193.599 390.319 208.329" stroke="#22272E" stroke-width="1.8" stroke-miterlimit="10" stroke-linecap="round" stroke-linejoin="round"/>
<path d="M361.509 181.998C361.509 181.998 363.465 186.691 365.159 193.469" stroke="#896068" stroke-width="1.8" stroke-miterlimit="10" stroke-linecap="round" stroke-linejoin="round"/>
<path d="M328.667 93.6224C328.667 93.6224 327.363 93.8832 325.799 94.4046C325.017 94.6654 323.713 95.1869 322.931 95.9691" stroke="#896068" stroke-width="1.8" stroke-miterlimit="10" stroke-linecap="round" stroke-linejoin="round"/>
<path d="M332.182 100.401C332.182 100.401 330.356 101.313 329.835 101.835" stroke="#896068" stroke-width="1.8" stroke-miterlimit="10" stroke-linecap="round" stroke-linejoin="round"/>
<path d="M321.368 88.2782C321.368 88.2782 319.152 89.7122 318.37 91.016" stroke="#896068" stroke-width="1.8" stroke-miterlimit="10" stroke-linecap="round" stroke-linejoin="round"/>
<path d="M314.068 83.1946C314.068 83.1946 311.982 84.6287 311.07 85.802" stroke="#896068" stroke-width="1.8" stroke-miterlimit="10" stroke-linecap="round" stroke-linejoin="round"/>
<path d="M322.277 121.387C322.277 121.387 327.36 127.774 342.09 122.951C342.09 122.951 343.654 128.816 343.784 130.381C343.784 130.381 331.531 135.334 323.059 129.338C322.929 129.338 322.146 122.69 322.277 121.387Z" fill="#22272E"/>
<path d="M328.726 132.961C330.842 132.528 332.007 129.489 331.329 126.174C330.65 122.86 328.384 120.524 326.269 120.957C324.153 121.39 322.988 124.428 323.666 127.743C324.345 131.058 326.611 133.394 328.726 132.961Z" fill="white"/>
<path d="M411.17 139.896C414.82 137.028 418.47 133.509 450.796 132.466C487.945 131.293 505.672 135.725 510.756 156.971C515.84 178.349 494.462 227.75 494.462 233.486C494.462 239.221 507.888 267.115 509.452 279.759C509.452 279.759 491.334 299.702 445.582 299.051C399.83 298.399 384.579 279.759 384.579 274.936C384.579 270.113 400.482 242.61 402.176 230.488C403.871 218.235 387.968 202.984 388.62 187.473C389.272 171.831 402.828 158.666 403.61 155.277C405.435 149.02 407.26 142.894 411.17 139.896Z" fill="#051A29"/>
<path d="M428.509 145.24C428.509 145.24 428.379 171.31 439.589 189.819C439.589 189.819 459.271 169.746 466.05 149.411C466.05 149.411 450.669 154.365 441.544 151.106C432.42 147.717 428.509 145.24 428.509 145.24Z" fill="#008BE1"/>
<path d="M438.283 128.947C438.283 128.947 431.114 131.032 427.334 139.766C423.554 148.629 424.988 161.534 428.377 161.403C431.766 161.273 444.801 152.018 444.801 152.018C444.801 152.018 444.149 129.989 438.283 128.947Z" fill="white"/>
<path d="M444.672 152.149C444.672 152.149 448.062 156.581 451.842 161.534C455.622 166.487 459.271 171.962 468.657 156.841C478.042 141.721 472.046 131.423 466.571 128.947C460.966 126.6 443.89 147.326 444.672 152.149Z" fill="white"/>
<path d="M438.29 118.91C438.29 118.91 437.768 129.729 436.465 137.028C435.161 144.328 437.247 150.976 444.677 152.149C452.106 153.322 467.357 145.24 468.27 134.161C468.27 134.161 466.966 107.961 469.182 99.7488C471.398 91.6672 438.681 113.175 438.29 118.91Z" fill="#B28D93"/>
<path d="M461.353 118.519C456.53 126.209 446.623 126.861 437.76 126.992C437.499 129.859 437.108 132.988 436.717 135.725C447.927 135.203 459.006 129.468 461.353 118.519Z" fill="#896068"/>
<path d="M507.37 270.765C472.437 293.576 418.733 296.444 387.059 268.028" stroke="#FDFFFC" stroke-width="1.8" stroke-miterlimit="10" stroke-linecap="round" stroke-linejoin="round"/>
<path d="M439.588 189.819C439.588 189.819 429.42 203.245 426.813 212.239" stroke="#FDFFFC" stroke-width="1.8" stroke-miterlimit="10" stroke-linecap="round" stroke-linejoin="round"/>
<path d="M441.026 203.115C442.178 203.115 443.112 202.182 443.112 201.03C443.112 199.877 442.178 198.944 441.026 198.944C439.874 198.944 438.94 199.877 438.94 201.03C438.94 202.182 439.874 203.115 441.026 203.115Z" fill="#FDFFFC"/>
<path d="M436.331 213.283C437.483 213.283 438.416 212.349 438.416 211.197C438.416 210.045 437.483 209.111 436.331 209.111C435.179 209.111 434.245 210.045 434.245 211.197C434.245 212.349 435.179 213.283 436.331 213.283Z" fill="#FDFFFC"/>
<path d="M528.485 177.697C528.485 177.697 538.261 199.986 543.084 217.062C547.776 234.138 542.953 244.696 532.395 249.779C521.837 254.863 513.495 241.828 497.723 202.333C497.723 202.463 521.316 170.919 528.485 177.697Z" fill="#B28D93"/>
<path d="M516.492 242.089C516.492 242.089 523.01 255.384 537.739 253.95C552.468 252.647 588.053 242.48 594.831 236.745C601.74 231.14 598.351 215.758 591.964 215.107C585.577 214.455 566.806 216.41 556.118 216.541C550.774 216.541 546.603 216.801 542.692 217.583C540.867 217.974 539.173 218.496 537.609 219.148C535.784 219.93 533.959 220.972 532.134 222.276C525.617 227.229 516.492 242.089 516.492 242.089Z" fill="#B28D93"/>
<path d="M542.952 217.714C541.127 218.105 539.433 218.626 537.869 219.278C536.044 220.06 534.219 221.103 532.394 222.406" stroke="#896068" stroke-width="1.8" stroke-miterlimit="10" stroke-linecap="round" stroke-linejoin="round"/>
<path d="M482.474 147.717C485.211 140.678 493.162 136.116 499.549 138.592C504.763 140.678 511.411 144.588 516.755 152.279C526.792 167.008 536.568 193.599 536.568 193.599C536.568 193.599 526.14 200.899 499.419 210.154C499.419 210.154 491.077 196.206 486.384 184.866C483.256 177.436 477.911 159.709 482.474 147.717Z" fill="#008BE1"/>
<path d="M496.551 203.245C496.551 203.245 516.624 198.161 533.57 186.3" stroke="#22272E" stroke-width="1.8" stroke-miterlimit="10" stroke-linecap="round" stroke-linejoin="round"/>
<path d="M550.771 222.146L639.147 213.152C641.363 212.891 643.318 214.455 643.579 216.671L652.572 287.059C652.833 289.144 651.53 291.1 649.444 291.491L563.154 310.13C560.808 310.652 558.592 309.088 558.331 306.741L547.251 226.838C546.86 224.492 548.424 222.406 550.771 222.146Z" fill="#008BE1"/>
<path d="M571.373 249.388L630.42 240.916C631.854 240.655 633.027 241.698 633.288 243.001L639.023 276.892C639.284 278.195 638.372 279.499 637.068 279.759L577.499 291.882C576.065 292.142 574.632 291.23 574.501 289.796L569.157 252.386C569.027 250.952 569.939 249.649 571.373 249.388Z" stroke="#22272E" stroke-width="1.8" stroke-miterlimit="10" stroke-linecap="round" stroke-linejoin="round"/>
<path d="M620.121 242.349L627.029 281.845" stroke="#22272E" stroke-width="1.8" stroke-miterlimit="10" stroke-linecap="round" stroke-linejoin="round"/>
<path d="M580.497 258.773L610.868 254.081" stroke="#22272E" stroke-width="1.8" stroke-miterlimit="10" stroke-linecap="round" stroke-linejoin="round"/>
<path d="M583.1 269.462L613.471 263.596" stroke="#22272E" stroke-width="1.8" stroke-miterlimit="10" stroke-linecap="round" stroke-linejoin="round"/>
<path d="M585.19 279.629L615.562 273.763" stroke="#22272E" stroke-width="1.8" stroke-miterlimit="10" stroke-linecap="round" stroke-linejoin="round"/>
<path d="M626.116 250.562L628.072 251.996L630.288 247.824" stroke="#22272E" stroke-width="1.8" stroke-miterlimit="10" stroke-linecap="round" stroke-linejoin="round"/>
<path d="M627.805 259.426L629.761 260.86L632.107 256.818" stroke="#22272E" stroke-width="1.8" stroke-miterlimit="10" stroke-linecap="round" stroke-linejoin="round"/>
<path d="M629.503 268.941L631.459 270.375L633.675 266.333" stroke="#22272E" stroke-width="1.8" stroke-miterlimit="10" stroke-linecap="round" stroke-linejoin="round"/>
<path d="M567.325 236.614L566.804 233.355C566.673 232.443 567.325 231.53 568.368 231.4L582.054 229.836C582.967 229.706 583.879 230.357 584.01 231.27L584.401 234.137C584.531 235.05 583.879 235.962 582.967 236.093L569.411 237.918C568.368 238.178 567.455 237.526 567.325 236.614Z" fill="#051A29"/>
<path d="M619.08 212.761C617.125 210.675 616.082 209.893 608.522 209.371C605.915 209.241 601.223 209.502 597.442 209.632C595.618 209.632 594.445 209.241 593.141 209.371C589.231 210.023 584.668 214.585 582.452 216.15C580.106 217.714 576.196 219.669 576.196 219.669L589.1 218.365C589.882 218.235 590.664 218.626 591.055 219.408C591.707 220.712 592.88 223.058 593.923 226.186C595.487 231.14 597.182 237.396 599.398 235.832C600.701 234.92 600.701 230.749 600.31 227.881C600.31 228.272 600.44 228.533 600.44 228.924C600.832 233.877 600.049 241.307 602.917 241.437C605.524 241.567 605.915 238.439 605.915 238.439C605.915 238.439 606.437 240.264 608.392 239.612C610.477 238.83 613.475 232.443 614.388 228.663C614.518 230.358 614.127 231.009 615.3 231.4C617.777 232.182 619.732 224.231 620.384 218.496C620.775 214.846 620.123 213.803 619.08 212.761Z" fill="#B28D93"/>
<path d="M605.782 238.309C605.782 238.309 607.085 231.531 607.607 228.793C608.128 226.056 607.998 218.496 607.607 217.062C607.216 215.498 606.303 213.803 606.303 213.803" stroke="#896068" stroke-width="1.8" stroke-miterlimit="10" stroke-linecap="round" stroke-linejoin="round"/>
<path d="M614.386 228.533C614.386 228.533 616.081 220.842 616.081 217.844C616.081 217.844 615.82 214.325 615.429 213.803" stroke="#896068" stroke-width="1.8" stroke-miterlimit="10" stroke-linecap="round" stroke-linejoin="round"/>
<path d="M600.438 230.618C600.438 230.618 600.698 225.665 600.438 223.579C600.177 221.494 598.222 215.237 597.961 215.107" stroke="#896068" stroke-width="1.8" stroke-miterlimit="10" stroke-linecap="round" stroke-linejoin="round"/>
<path d="M491.207 67.6832C491.207 59.8623 485.863 53.2146 478.694 51.2594C477.912 42.6564 470.612 35.8783 461.749 35.8783C459.663 35.8783 457.578 36.2693 455.753 37.0514C452.624 33.532 448.062 31.1858 442.979 31.1858C436.983 31.1858 431.769 34.1838 428.771 38.8763C428.249 38.8763 427.728 38.746 427.206 38.746C417.821 38.746 410.261 46.3061 410.261 55.6912C410.261 59.3409 411.434 62.73 413.39 65.4673C412.347 67.6832 411.695 70.1598 411.695 72.7668C411.695 82.1518 419.255 89.712 428.64 89.712C438.025 89.712 445.586 82.1518 445.586 72.7668C445.586 70.0295 444.934 67.4225 443.761 65.2066C445.586 65.0763 447.28 64.6852 448.975 64.1638C451.191 66.6404 454.058 68.4653 457.317 69.3777C457.578 71.8543 458.36 74.0703 459.402 76.1558C457.447 78.8931 456.274 82.2822 456.274 85.9319C456.274 95.317 463.834 102.877 473.219 102.877C482.604 102.877 490.165 95.317 490.165 85.9319C490.165 82.9339 489.382 80.0663 487.949 77.5897C490.165 74.5917 491.207 71.3329 491.207 67.6832Z" fill="#22272E"/>
<path d="M443.887 60.3837C432.417 60.2534 422.901 69.117 422.119 80.4573C421.728 85.5409 421.207 92.5797 420.294 98.4453C418.73 108.612 420.295 123.733 436.327 127.383C452.36 131.032 468.002 115.651 471.521 102.356C475.171 89.0603 478.039 69.6384 459.138 63.2514C453.664 61.4265 448.45 60.5141 443.887 60.3837Z" fill="#B28D93"/>
<path d="M466.439 95.9687C466.439 95.9687 463.963 93.8832 463.181 85.4105C463.05 84.3678 462.268 83.4553 461.226 83.1946C458.358 82.5429 453.144 79.5449 451.319 67.6832C451.319 67.6832 444.02 72.8971 434.895 75.113C426.032 77.1986 420.427 69.117 417.559 64.9459C412.475 57.5161 413.127 55.6912 415.473 52.8235C427.074 38.4853 447.669 44.4813 451.449 45.7847C455.23 47.0882 468.655 46.0454 477.91 55.9519C487.165 65.8583 485.079 80.0663 482.603 88.7996C480.256 97.5329 467.743 113.044 467.743 114.217C467.743 115.391 466.439 95.9687 466.439 95.9687Z" fill="#22272E"/>
<path d="M464.614 96.6204C464.614 96.6204 467.091 90.103 472.696 91.0155C477.128 91.6672 478.04 106.918 467.221 109.134" fill="#B28D93"/>
<path d="M430.852 89.5816C430.983 91.0155 430.461 92.4493 429.81 93.7528C429.419 94.4045 429.028 94.9259 428.506 95.5776C428.245 95.8383 428.115 96.099 427.985 96.2294C427.854 96.4901 427.724 96.6204 427.594 96.8811C427.203 97.6632 427.333 98.5756 427.854 99.6184C428.376 100.661 429.288 101.574 430.461 102.486C429.028 102.486 427.594 101.834 426.421 100.792C425.899 100.27 425.378 99.4881 425.247 98.5756C424.987 97.6632 425.117 96.7508 425.508 95.8383C425.638 95.4473 425.899 95.0562 426.16 94.6652C426.421 94.4045 426.812 94.0135 426.942 93.8831C427.463 93.4921 427.854 92.9707 428.376 92.5796C429.158 91.6672 429.94 90.7548 430.852 89.5816Z" fill="#22272E"/>
<path d="M439.326 111.742C441.803 111.351 445.192 110.047 446.626 106.397" stroke="#22272E" stroke-width="1.8" stroke-miterlimit="10" stroke-linecap="round" stroke-linejoin="round"/>
<path d="M444.543 82.1518C443.761 81.2394 443.761 78.8931 445.325 78.3717C446.889 77.72 451.06 78.3717 453.798 81.8911C456.535 85.2802 451.06 82.6732 449.496 82.4125C447.932 82.1518 445.195 82.8035 444.543 82.1518Z" fill="#22272E"/>
<path d="M429.03 80.9793C429.812 81.24 430.595 80.8489 430.855 80.0667C431.116 79.0237 431.116 78.2415 430.595 77.5897C429.943 76.6771 424.598 77.3289 423.685 79.806C423.033 81.5008 426.423 80.0667 427.596 80.4578C427.987 80.4578 428.509 80.7186 429.03 80.9793Z" fill="#22272E"/>
<path d="M427.729 89.3214C427.859 88.148 427.077 87.1051 425.903 86.9747C424.73 86.8443 423.687 87.6265 423.557 88.7999V89.3214L427.729 89.8428V89.3214Z" fill="#22272E"/>
<path d="M447.935 91.7979C448.065 90.6246 447.283 89.5817 446.11 89.4513C444.937 89.3209 443.894 90.1031 443.763 91.2765V91.6676L447.935 92.1891V91.7979Z" fill="#22272E"/>
<path d="M473.349 96.8811C472.958 96.6204 472.436 96.4901 472.176 96.4901C471.915 96.4901 471.785 96.7508 471.524 96.8811L471.393 97.0115V97.1418C471.393 97.2722 471.393 97.2722 471.393 97.4025C471.393 97.6632 471.393 98.0543 471.393 98.4453C471.393 99.3577 471.524 100.27 471.263 101.443C471.133 101.965 470.742 102.616 470.22 103.007C469.699 103.399 469.047 103.399 468.526 103.268C468.917 102.877 469.308 102.616 469.308 102.225C469.438 101.965 469.438 101.574 469.308 101.183C469.178 100.531 469.047 99.6184 468.917 98.5756C468.917 98.0542 468.917 97.5329 469.047 96.8811C469.178 96.6204 469.308 96.2294 469.569 95.8383C469.699 95.708 469.829 95.5776 470.09 95.4473L470.481 95.1866C471.002 94.9259 471.915 94.7956 472.436 95.1866C473.218 95.8383 473.349 96.3597 473.349 96.8811Z" fill="#22272E"/>
<path d="M428.524 91.1047C429.123 85.4494 426.069 80.4897 421.702 80.0268C417.336 79.564 413.31 83.7733 412.71 89.4286C412.111 95.0839 415.165 100.044 419.532 100.507C423.898 100.969 427.924 96.76 428.524 91.1047Z" stroke="#22272E" stroke-width="1.8" stroke-miterlimit="10" stroke-linecap="round" stroke-linejoin="round"/>
<path d="M457.219 93.3653C457.818 87.71 454.242 82.6949 449.231 82.1638C444.22 81.6326 439.672 85.7866 439.072 91.4419C438.473 97.0972 442.049 102.112 447.06 102.643C452.071 103.175 456.619 99.0207 457.219 93.3653Z" stroke="#22272E" stroke-width="1.8" stroke-miterlimit="10" stroke-linecap="round" stroke-linejoin="round"/>
<path d="M428.642 89.712C428.642 89.712 431.249 87.6264 439.2 90.8851" stroke="#22272E" stroke-width="1.8" stroke-miterlimit="10" stroke-linecap="round" stroke-linejoin="round"/>
<path d="M457.186 92.4493L466.441 93.7528" stroke="#22272E" stroke-width="1.8" stroke-miterlimit="10" stroke-linecap="round" stroke-linejoin="round"/>
<path d="M317.969 299.833C316.405 299.833 323.183 283.93 330.091 286.146C337 288.232 326.702 299.833 317.969 299.833Z" fill="#008BE1"/>
<path d="M318.757 301.918C318.757 301.918 311.197 292.533 303.767 294.619C296.337 296.835 305.592 307.523 318.757 301.918Z" fill="#008BE1"/>
<path d="M316.539 292.533C316.539 292.533 327.749 273.242 322.926 268.68C314.584 260.468 304.026 284.713 316.539 292.533Z" fill="#008BE1"/>
<path d="M335.31 336.33L318.887 339.98C314.324 341.023 309.632 338.546 307.807 334.245L300.377 316.257C298.943 312.737 301.029 308.827 304.679 308.045L334.398 301.397C338.048 300.615 341.567 303.222 341.828 307.002L342.74 326.424C343.001 331.116 339.873 335.288 335.31 336.33Z" fill="#22272E"/>
<path d="M319.801 305.959C319.801 305.959 314.587 290.187 316.542 282.757" stroke="#22272E" stroke-width="1.8" stroke-miterlimit="10" stroke-linecap="round" stroke-linejoin="round"/>
</g>
</svg>
