<svg width="12" height="9" viewBox="0 0 12 9" fill="none" xmlns="http://www.w3.org/2000/svg">
<path d="M11.4688 4.5C11.4688 4.67405 11.3996 4.84097 11.2765 4.96404C11.1535 5.08711 10.9865 5.15625 10.8125 5.15625H1.1875C1.01345 5.15625 0.846532 5.08711 0.723461 4.96404C0.60039 4.84097 0.53125 4.67405 0.53125 4.5C0.53125 4.32595 0.60039 4.15903 0.723461 4.03596C0.846532 3.91289 1.01345 3.84375 1.1875 3.84375H10.8125C10.9865 3.84375 11.1535 3.91289 11.2765 4.03596C11.3996 4.15903 11.4688 4.32595 11.4688 4.5ZM1.1875 1.65625H10.8125C10.9865 1.65625 11.1535 1.58711 11.2765 1.46404C11.3996 1.34097 11.4688 1.17405 11.4688 1C11.4688 0.825952 11.3996 0.659032 11.2765 0.535961C11.1535 0.41289 10.9865 0.34375 10.8125 0.34375H1.1875C1.01345 0.34375 0.846532 0.41289 0.723461 0.535961C0.60039 0.659032 0.53125 0.825952 0.53125 1C0.53125 1.17405 0.60039 1.34097 0.723461 1.46404C0.846532 1.58711 1.01345 1.65625 1.1875 1.65625ZM10.8125 7.34375H1.1875C1.01345 7.34375 0.846532 7.41289 0.723461 7.53596C0.60039 7.65903 0.53125 7.82595 0.53125 8C0.53125 8.17405 0.60039 8.34097 0.723461 8.46404C0.846532 8.58711 1.01345 8.65625 1.1875 8.65625H10.8125C10.9865 8.65625 11.1535 8.58711 11.2765 8.46404C11.3996 8.34097 11.4688 8.17405 11.4688 8C11.4688 7.82595 11.3996 7.65903 11.2765 7.53596C11.1535 7.41289 10.9865 7.34375 10.8125 7.34375Z" fill="#8C8E9D"/>
</svg>
