<svg width="1404" height="543" viewBox="0 0 1404 543" fill="none" xmlns="http://www.w3.org/2000/svg">
<path d="M1.63562 211.395C0.58166 202.682 2.74673 193.885 7.72376 186.656L26.2909 159.689C30.0326 154.255 35.1957 149.954 41.2162 147.255L66.3157 136.003C72.7736 133.108 79.9415 132.181 86.9234 133.337L188.561 150.169C193.389 150.969 198.004 152.745 202.123 155.388L287.434 210.14C294.283 214.535 299.44 221.122 302.065 228.826L351.909 375.105C359.867 398.459 342.506 422.716 317.833 422.716H185.506C181.774 422.716 178.065 422.136 174.511 420.996L72.8491 388.388C63.7799 385.479 56.233 379.094 51.8611 370.632L14.4099 298.146C12.4409 294.335 11.1689 290.203 10.6537 285.945L1.63562 211.395Z" fill="#0C5400"/>
<path d="M105.904 91.9303C108.393 83.5143 113.87 76.2971 121.306 71.6358L149.046 54.2464C154.637 50.7421 161.082 48.8415 167.68 48.7522L195.183 48.3798C202.26 48.284 209.207 50.276 215.158 54.1069L301.78 109.874C305.896 112.523 309.428 115.984 312.16 120.044L368.754 204.144C373.298 210.896 375.42 218.988 374.773 227.101L362.504 381.151C360.545 405.746 334.987 421.127 312.338 411.34L190.867 358.85C187.441 357.37 184.266 355.366 181.456 352.91L101.069 282.651C93.8974 276.383 89.5021 267.529 88.8453 258.027L83.2191 176.632C82.9234 172.353 83.3947 168.055 84.611 163.942L105.904 91.9303Z" fill="#6F9600" fill-opacity="0.44"/>
<path d="M366.056 30.9347C373.768 26.7446 382.744 25.5158 391.298 27.4793L423.208 34.8041C429.639 36.2802 435.54 39.4951 440.268 44.0977L459.976 63.2856C465.046 68.2225 468.549 74.5444 470.047 81.4611L491.849 182.149C492.884 186.933 492.934 191.877 491.994 196.681L472.528 296.163C470.965 304.15 466.742 311.371 460.548 316.65L342.925 416.884C324.146 432.887 295.199 425.685 286.108 402.748L237.351 279.732C235.976 276.262 235.149 272.6 234.899 268.876L227.755 162.352C227.118 152.849 230.272 143.481 236.528 136.299L290.115 74.7744C292.933 71.5398 296.305 68.8347 300.074 66.7868L366.056 30.9347Z" fill="#939600" fill-opacity="0.44"/>
<path d="M548.5 252.6C564.9 252.6 577.5 257.4 586.3 267C595.1 276.4 599.5 289.4 599.5 306C599.5 312 598.9 318.3 597.7 324.9L580.3 423H514L529.9 333.3C530.3 330.1 530.5 327.9 530.5 326.7C530.5 320.5 528.7 315.7 525.1 312.3C521.7 308.9 516.9 307.2 510.7 307.2C503.3 307.2 497.1 309.5 492.1 314.1C487.3 318.7 484.1 325.1 482.5 333.3V333L466.6 423H400L439.3 201H505.9L492.1 279.3C498.7 271.3 506.8 264.9 516.4 260.1C526 255.1 536.7 252.6 548.5 252.6ZM609.18 338.4C612.38 320.6 618.18 305.2 626.58 292.2C634.98 279 645.08 269 656.88 262.2C668.68 255.2 681.18 251.7 694.38 251.7C705.38 251.7 714.48 254 721.68 258.6C728.88 263 733.88 269.1 736.68 276.9L740.88 253.8H807.18L777.18 423H710.88L715.08 399.9C709.48 407.7 702.28 413.9 693.48 418.5C684.68 422.9 674.78 425.1 663.78 425.1C646.78 425.1 633.08 419.4 622.68 408C612.28 396.6 607.08 380.8 607.08 360.6C607.08 353 607.78 345.6 609.18 338.4ZM725.88 338.4C726.28 336.6 726.48 334.2 726.48 331.2C726.48 324.4 724.68 319.2 721.08 315.6C717.48 311.8 712.58 309.9 706.38 309.9C699.18 309.9 692.78 312.4 687.18 317.4C681.78 322.4 678.28 329.4 676.68 338.4C676.28 340.2 676.08 342.6 676.08 345.6C676.08 352.4 677.88 357.7 681.48 361.5C685.08 365.1 689.98 366.9 696.18 366.9C703.38 366.9 709.68 364.4 715.08 359.4C720.68 354.4 724.28 347.4 725.88 338.4ZM906.986 201L867.686 423H801.086L840.386 201H906.986ZM997.666 201L958.366 423H891.766L931.066 201H997.666ZM1048.45 240.3C1038.05 240.3 1029.85 237.8 1023.85 232.8C1018.05 227.8 1015.15 221.3 1015.15 213.3C1015.15 206.3 1017.05 199.8 1020.85 193.8C1024.65 187.8 1029.95 183.1 1036.75 179.7C1043.75 176.1 1051.45 174.3 1059.85 174.3C1070.05 174.3 1078.05 176.9 1083.85 182.1C1089.85 187.1 1092.85 193.7 1092.85 201.9C1092.85 208.9 1090.95 215.3 1087.15 221.1C1083.35 226.9 1078.05 231.6 1071.25 235.2C1064.45 238.6 1056.85 240.3 1048.45 240.3ZM1079.05 253.8L1049.05 423H982.445L1012.45 253.8H1079.05ZM1202.73 241.8C1199.13 241.4 1196.73 241.2 1195.53 241.2C1190.33 241.2 1186.13 242.2 1182.93 244.2C1179.93 246.2 1177.63 249.4 1176.03 253.8H1200.63L1190.73 309.3H1165.83L1145.73 423H1079.13L1099.23 309.3H1081.23L1091.13 253.8H1109.13C1113.33 231.8 1123.23 214.8 1138.83 202.8C1154.43 190.6 1174.43 184.5 1198.83 184.5C1201.63 184.5 1206.23 184.7 1212.63 185.1L1202.73 241.8ZM1268.65 253.8L1285.15 339.6L1330.15 253.8H1403.65L1251.25 504H1178.35L1236.55 414.6L1194.55 253.8H1268.65Z" fill="#0E2341"/>
</svg>
