<svg width="2047" height="705" viewBox="0 0 2047 705" fill="none" xmlns="http://www.w3.org/2000/svg">
<path d="M1.63562 305.395C0.58166 296.682 2.74673 287.885 7.72376 280.656L26.2909 253.689C30.0326 248.255 35.1957 243.954 41.2162 241.255L66.3157 230.003C72.7736 227.108 79.9415 226.181 86.9234 227.337L188.561 244.169C193.389 244.969 198.004 246.745 202.123 249.388L287.434 304.14C294.283 308.535 299.44 315.122 302.065 322.826L351.909 469.105C359.867 492.459 342.506 516.716 317.833 516.716H185.506C181.774 516.716 178.065 516.136 174.511 514.996L72.8491 482.388C63.7799 479.479 56.233 473.094 51.8611 464.632L14.4099 392.146C12.4409 388.335 11.1689 384.203 10.6537 379.945L1.63562 305.395Z" fill="#0C5400"/>
<path d="M105.904 185.93C108.393 177.514 113.87 170.297 121.306 165.636L149.046 148.246C154.637 144.742 161.082 142.842 167.68 142.752L195.183 142.38C202.26 142.284 209.207 144.276 215.158 148.107L301.78 203.874C305.896 206.523 309.428 209.984 312.16 214.044L368.754 298.144C373.298 304.896 375.42 312.988 374.773 321.101L362.504 475.151C360.545 499.746 334.987 515.127 312.338 505.34L190.867 452.85C187.441 451.37 184.266 449.366 181.456 446.91L101.069 376.651C93.8974 370.383 89.5021 361.529 88.8453 352.027L83.2191 270.632C82.9234 266.353 83.3947 262.055 84.611 257.942L105.904 185.93Z" fill="#6F9600"/>
<path d="M366.056 124.935C373.768 120.745 382.744 119.516 391.298 121.479L423.208 128.804C429.639 130.28 435.54 133.495 440.268 138.098L459.976 157.286C465.046 162.222 468.549 168.544 470.047 175.461L491.849 276.149C492.884 280.933 492.934 285.877 491.994 290.681L472.528 390.163C470.965 398.15 466.742 405.371 460.548 410.65L342.925 510.884C324.146 526.887 295.199 519.685 286.108 496.748L237.351 373.732C235.976 370.262 235.149 366.6 234.899 362.876L227.755 256.352C227.118 246.849 230.272 237.481 236.528 230.299L290.115 168.774C292.933 165.54 296.305 162.835 300.074 160.787L366.056 124.935Z" fill="#939600"/>
<path d="M706.65 250.04C732.343 250.04 752.083 257.56 765.87 272.6C779.657 287.327 786.55 307.693 786.55 333.7C786.55 343.1 785.61 352.97 783.73 363.31L756.47 517H652.6L677.51 376.47C678.137 371.457 678.45 368.01 678.45 366.13C678.45 356.417 675.63 348.897 669.99 343.57C664.663 338.243 657.143 335.58 647.43 335.58C635.837 335.58 626.123 339.183 618.29 346.39C610.77 353.597 605.757 363.623 603.25 376.47V376L578.34 517H474L535.57 169.2H639.91L618.29 291.87C628.63 279.337 641.32 269.31 656.36 261.79C671.4 253.957 688.163 250.04 706.65 250.04ZM801.715 384.46C806.728 356.573 815.815 332.447 828.975 312.08C842.135 291.4 857.958 275.733 876.445 265.08C894.932 254.113 914.515 248.63 935.195 248.63C952.428 248.63 966.685 252.233 977.965 259.44C989.245 266.333 997.078 275.89 1001.46 288.11L1008.04 251.92H1111.91L1064.91 517H961.045L967.625 480.81C958.852 493.03 947.572 502.743 933.785 509.95C919.998 516.843 904.488 520.29 887.255 520.29C860.622 520.29 839.158 511.36 822.865 493.5C806.572 475.64 798.425 450.887 798.425 419.24C798.425 407.333 799.522 395.74 801.715 384.46ZM984.545 384.46C985.172 381.64 985.485 377.88 985.485 373.18C985.485 362.527 982.665 354.38 977.025 348.74C971.385 342.787 963.708 339.81 953.995 339.81C942.715 339.81 932.688 343.727 923.915 351.56C915.455 359.393 909.972 370.36 907.465 384.46C906.838 387.28 906.525 391.04 906.525 395.74C906.525 406.393 909.345 414.697 914.985 420.65C920.625 426.29 928.302 429.11 938.015 429.11C949.295 429.11 959.165 425.193 967.625 417.36C976.398 409.527 982.038 398.56 984.545 384.46ZM1268.28 169.2L1206.71 517H1102.37L1163.94 169.2H1268.28ZM1410.34 169.2L1348.77 517H1244.43L1306 169.2H1410.34ZM1489.9 230.77C1473.6 230.77 1460.76 226.853 1451.36 219.02C1442.27 211.187 1437.73 201.003 1437.73 188.47C1437.73 177.503 1440.7 167.32 1446.66 157.92C1452.61 148.52 1460.91 141.157 1471.57 135.83C1482.53 130.19 1494.6 127.37 1507.76 127.37C1523.74 127.37 1536.27 131.443 1545.36 139.59C1554.76 147.423 1559.46 157.763 1559.46 170.61C1559.46 181.577 1556.48 191.603 1550.53 200.69C1544.57 209.777 1536.27 217.14 1525.62 222.78C1514.96 228.107 1503.06 230.77 1489.9 230.77ZM1537.84 251.92L1490.84 517H1386.5L1433.5 251.92H1537.84ZM1731.6 233.12C1725.96 232.493 1722.2 232.18 1720.32 232.18C1712.18 232.18 1705.6 233.747 1700.58 236.88C1695.88 240.013 1692.28 245.027 1689.77 251.92H1728.31L1712.8 338.87H1673.79L1642.3 517H1537.96L1569.45 338.87H1541.25L1556.76 251.92H1584.96C1591.54 217.453 1607.05 190.82 1631.49 172.02C1655.93 152.907 1687.27 143.35 1725.49 143.35C1729.88 143.35 1737.09 143.663 1747.11 144.29L1731.6 233.12ZM1834.89 251.92L1860.74 386.34L1931.24 251.92H2046.39L1807.63 643.9H1693.42L1784.6 503.84L1718.8 251.92H1834.89Z" fill="#E0E0E0"/>
</svg>
