<svg width="4" height="14" viewBox="0 0 4 14" fill="none" xmlns="http://www.w3.org/2000/svg">
<path d="M2 4.33331C1.46957 4.33331 0.960859 4.1226 0.585786 3.74753C0.210714 3.37245 0 2.86375 0 2.33331C0 1.80288 0.210714 1.29417 0.585786 0.919099C0.960859 0.544027 1.46957 0.333313 2 0.333313C2.53043 0.333313 3.03914 0.544027 3.41421 0.919099C3.78929 1.29417 4 1.80288 4 2.33331C4 2.86375 3.78929 3.37245 3.41421 3.74753C3.03914 4.1226 2.53043 4.33331 2 4.33331ZM2 13.6666C1.46957 13.6666 0.960859 13.4559 0.585786 13.0809C0.210714 12.7058 0 12.1971 0 11.6666C0 11.1362 0.210714 10.6275 0.585786 10.2524C0.960859 9.87736 1.46957 9.66665 2 9.66665C2.53043 9.66665 3.03914 9.87736 3.41421 10.2524C3.78929 10.6275 4 11.1362 4 11.6666C4 12.1971 3.78929 12.7058 3.41421 13.0809C3.03914 13.4559 2.53043 13.6666 2 13.6666ZM2 8.99998C1.46957 8.99998 0.960859 8.78927 0.585786 8.41419C0.210714 8.03912 0 7.53041 0 6.99998C0 6.46955 0.210714 5.96084 0.585786 5.58577C0.960859 5.21069 1.46957 4.99998 2 4.99998C2.53043 4.99998 3.03914 5.21069 3.41421 5.58577C3.78929 5.96084 4 6.46955 4 6.99998C4 7.53041 3.78929 8.03912 3.41421 8.41419C3.03914 8.78927 2.53043 8.99998 2 8.99998Z" fill="#8C8E9D"/>
</svg>
