<svg width="1440" height="780" viewBox="0 0 1440 780" fill="none" xmlns="http://www.w3.org/2000/svg">
<g clip-path="url(#clip0_64_101)">
<path fill-rule="evenodd" clip-rule="evenodd" d="M226.204 171.091C261.72 99.7137 311.669 37.479 386.082 -3.24853C417.902 -20.6752 451.64 -32.6293 484.538 -47.406C511.037 -59.326 535.945 -70.3099 563.648 -78.2622C629.334 -97.0639 690.694 -128.93 757.644 -142.976C847.047 -161.787 937.761 -159.02 1021.31 -142.841C1062.11 -134.944 1102.8 -123.759 1139.52 -106.283C1171.05 -91.2748 1195.97 -65.931 1218.4 -40.9806C1262.37 7.90341 1298.51 68.9828 1310.35 135.457C1336.47 282.011 1129.43 316.511 1020.13 340.524C969.864 351.573 897.231 359.774 858.902 401.182C831.513 430.761 808.314 462.326 778.132 489.832C697.071 563.698 568.019 639.83 467.723 592.245C424.801 571.892 394.445 535.117 359.365 505.744C323.246 475.494 282.258 451.984 241.374 427.49C203.163 404.605 175.503 380.554 164.969 336.355C159.928 315.244 170.828 295.371 179.632 274.25C194.106 239.56 209.405 204.909 226.204 171.091Z" stroke="#5BE7C3" stroke-opacity="0.65" stroke-width="5"/>
<path fill-rule="evenodd" clip-rule="evenodd" d="M273.233 175.487C342.446 72.7243 463.002 -25.1202 586.938 -58.1049C732.724 -96.9065 882.082 -121.102 1022.39 -97.0192C1087.44 -85.8548 1156.28 -68.6167 1200.84 -23.1104C1234.76 11.5089 1270.86 58.5999 1274.12 109.684C1282.11 234.639 1110.16 277.269 1011.73 302.522C958.738 316.115 895.078 325.53 846.154 354.454C817.777 371.221 794.546 397.961 768.504 418.009C689.583 478.764 589.75 516.233 496.218 498.81C452.975 490.749 414.772 471.489 376.573 453.682C337.469 435.456 296.752 419.349 258.855 399.23C228.606 383.167 194.335 361.371 199.046 322.495C204.971 273.502 244.973 217.455 273.233 175.487Z" stroke="#5ACEF2" stroke-opacity="0.65" stroke-width="5" style="mix-blend-mode:hard-light"/>
<path fill-rule="evenodd" clip-rule="evenodd" d="M442.216 146.752C578.251 -5.29184 791.151 -33.5289 971.52 -9.52849C1013.43 -3.94425 1133.52 6.30183 1130.24 64.9493C1127.05 121.808 1031.81 160.087 987.069 178.342C848.418 234.908 697.874 261.631 553.879 289.745C508.933 298.521 424.34 321.689 390.181 287.673C353.112 250.7 414.019 178.282 442.216 146.752Z" stroke="#5ACEF2" stroke-opacity="0.65" stroke-width="5" style="mix-blend-mode:hard-light"/>
<path fill-rule="evenodd" clip-rule="evenodd" d="M513.771 131.954C621.217 22.3018 793.61 -5.27698 931.81 11.5703C965.657 15.7026 1053.21 22.8854 1060 65.2065C1066.29 104.358 991.868 134.462 963.505 146.81C900.357 174.309 832.696 191.976 766.289 208.521C704.879 223.838 642.599 239.751 580.987 249.62C548.539 254.811 486.01 268.023 466.5 237.818C445.488 205.316 489.913 156.302 513.771 131.954Z" stroke="#5ACEF2" stroke-opacity="0.65" stroke-width="5" style="mix-blend-mode:hard-light"/>
<path fill-rule="evenodd" clip-rule="evenodd" d="M592.878 115.125C668.222 45.1685 790.504 23.1257 884.381 32.7734C909.636 35.3797 965.204 38.9686 974.128 66.9106C982.341 92.6414 939.441 112.85 920.147 122.348C834.634 164.45 725.929 191.754 634.133 200.545C611.054 202.754 568.906 208.097 557.321 185.093C545.446 161.478 575.574 131.187 592.878 115.125Z" stroke="#5BE7C3" stroke-opacity="0.65" stroke-width="5"/>
</g>
<defs>
<clipPath id="clip0_64_101">
<rect width="1440" height="780" fill="white"/>
</clipPath>
</defs>
</svg>
