<svg width="1104" height="928" viewBox="0 0 1104 928" fill="none" xmlns="http://www.w3.org/2000/svg">
<g opacity="0.11">
<path fill-rule="evenodd" clip-rule="evenodd" d="M145.204 227.091C180.72 155.714 230.669 93.479 305.082 52.7515C336.902 35.3248 370.64 23.3707 403.538 8.59401C430.037 -3.32595 454.945 -14.3099 482.648 -22.2622C548.334 -41.0639 609.694 -72.9302 676.645 -86.9761C766.047 -105.787 856.761 -103.02 940.313 -86.8409C981.112 -78.9444 1021.8 -67.759 1058.52 -50.2831C1090.05 -35.2748 1114.97 -9.931 1137.4 15.0194C1181.37 63.9034 1217.51 124.983 1229.36 191.457C1255.47 338.011 1048.43 372.511 939.132 396.524C888.864 407.573 816.231 415.774 777.902 457.182C750.513 486.761 727.314 518.326 697.133 545.832C616.072 619.698 487.019 695.83 386.723 648.245C343.801 627.892 313.445 591.117 278.365 561.744C242.246 531.494 201.258 507.984 160.375 483.49C122.163 460.605 94.5029 436.554 83.9695 392.355C78.9283 371.244 89.8284 351.371 98.6321 330.25C113.106 295.56 128.405 260.909 145.204 227.091Z" stroke="#5BE7C3" stroke-opacity="0.65" stroke-width="5"/>
<path fill-rule="evenodd" clip-rule="evenodd" d="M192.233 231.487C261.446 128.724 382.002 30.8798 505.938 -2.10486C651.724 -40.9065 801.082 -65.1023 941.386 -41.0192C1006.44 -29.8548 1075.28 -12.6167 1119.84 32.8896C1153.76 67.5089 1189.86 114.6 1193.12 165.684C1201.11 290.639 1029.16 333.269 930.73 358.522C877.738 372.115 814.078 381.53 765.154 410.454C736.777 427.221 713.546 453.961 687.504 474.009C608.583 534.764 508.75 572.233 415.218 554.81C371.975 546.749 333.772 527.489 295.573 509.682C256.469 491.456 215.752 475.349 177.855 455.23C147.606 439.167 113.335 417.371 118.046 378.495C123.971 329.502 163.973 273.455 192.233 231.487Z" stroke="#5ACEF2" stroke-opacity="0.65" stroke-width="5" style="mix-blend-mode:hard-light"/>
<path fill-rule="evenodd" clip-rule="evenodd" d="M361.216 202.752C497.251 50.7082 710.151 22.4711 890.52 46.4715C932.43 52.0558 1052.52 62.3018 1049.24 120.949C1046.05 177.808 950.815 216.087 906.069 234.342C767.418 290.908 616.874 317.631 472.879 345.745C427.933 354.521 343.34 377.689 309.181 343.673C272.112 306.7 333.019 234.282 361.216 202.752Z" stroke="#5ACEF2" stroke-opacity="0.65" stroke-width="5" style="mix-blend-mode:hard-light"/>
<path fill-rule="evenodd" clip-rule="evenodd" d="M432.771 187.954C540.217 78.3018 712.61 50.723 850.81 67.5703C884.657 71.7026 972.212 78.8854 978.998 121.206C985.285 160.358 910.868 190.462 882.505 202.81C819.357 230.309 751.696 247.976 685.289 264.521C623.879 279.838 561.599 295.751 499.987 305.62C467.539 310.811 405.01 324.023 385.5 293.818C364.488 261.316 408.913 212.302 432.771 187.954Z" stroke="#5ACEF2" stroke-opacity="0.65" stroke-width="5" style="mix-blend-mode:hard-light"/>
<path fill-rule="evenodd" clip-rule="evenodd" d="M511.878 171.125C587.222 101.168 709.504 79.1257 803.381 88.7734C828.636 91.3797 884.204 94.9686 893.128 122.911C901.341 148.641 858.441 168.85 839.147 178.348C753.634 220.45 644.929 247.754 553.133 256.545C530.054 258.754 487.906 264.097 476.321 241.093C464.446 217.478 494.574 187.187 511.878 171.125Z" stroke="#5BE7C3" stroke-opacity="0.65" stroke-width="5"/>
</g>
</svg>
